<svg width="200" height="84" viewBox="0 0 200 84" fill="none" xmlns="http://www.w3.org/2000/svg">
<path d="M190.486 30.6413C190.408 30.1753 190.33 29.6704 190.214 29.2044C190.059 28.583 190.486 28.35 191.107 28.3888C191.923 28.4277 192.738 28.3888 193.554 28.4277C194.097 28.4665 194.602 28.4277 195.146 28.35C195.612 28.2723 195.923 28.4665 196 28.816C196.117 29.3209 196.194 29.8257 196.233 30.3306C196.35 31.6898 196.428 33.049 196.505 34.4083C196.544 34.9131 196.505 35.418 196.622 35.9228C196.699 36.35 196.932 36.7384 197.088 37.1267C197.282 37.6704 196.971 37.9422 196.194 37.8646C195.845 37.8257 195.534 37.8646 195.185 37.8257C194.913 37.8257 194.641 37.8257 194.33 37.8257C193.67 37.7481 193.049 37.7481 192.428 37.8646C191.884 37.9422 191.845 37.8646 191.612 37.4762C191.224 36.8549 190.913 36.1558 190.33 35.651C189.398 34.7966 188.699 34.5248 187.262 34.7966C186.563 34.9131 186.097 35.3791 186.059 35.9228C186.059 36.2723 186.136 36.6219 186.369 36.9714C186.525 37.1655 186.641 37.3597 186.758 37.5539C186.991 37.9422 187.34 38.2918 187.767 38.5636C188.466 38.9908 189.165 39.418 189.942 39.7675C190.991 40.2723 192.039 40.6995 193.127 41.1655C193.981 41.5151 194.719 42.0199 195.418 42.4859C196.505 43.2238 197.36 44.117 198.175 45.0102C198.758 45.6316 199.029 46.3694 199.262 47.1073C199.495 47.8063 199.612 48.5442 199.651 49.282C199.728 50.2141 199.612 51.0685 199.224 51.9228C199.185 52.0393 199.185 52.1558 199.185 52.2723C199.107 52.583 199.068 52.8937 198.874 53.1655C198.408 53.9034 197.981 54.6413 197.165 55.2238C196.699 55.5345 196.156 55.8452 195.612 56.0782C194.952 56.35 194.253 56.583 193.515 56.6607C192.699 56.7772 191.845 56.7772 191.029 56.6995C189.554 56.5442 188.117 56.1558 186.758 55.6898C186.408 55.5733 186.136 55.418 185.826 55.2626C185.67 55.185 185.515 55.1073 185.282 54.9908C185.243 55.2626 185.204 55.4568 185.243 55.6121C185.36 56.4277 185.476 57.282 185.593 58.0976C185.631 58.2529 185.631 58.4083 185.593 58.5248C185.515 58.7189 185.321 58.8743 185.01 58.8354C183.534 58.6801 182.059 58.8354 180.583 58.8743C180.194 58.8743 179.806 58.9131 179.457 58.9908C178.835 59.1073 178.525 58.9519 178.525 58.4859C178.525 58.0199 178.563 57.5927 178.563 57.1267C178.563 57.049 178.602 57.0102 178.602 56.9325C178.447 56.117 178.563 55.2626 178.563 54.4471C178.563 53.3597 178.641 52.2335 178.68 51.1461C178.719 50.0976 178.758 49.0102 178.796 47.9617C178.796 47.6898 178.758 47.4568 178.758 47.185C178.758 46.7578 178.952 46.6024 179.495 46.5636C180.894 46.4471 182.253 46.2918 183.612 46.1364C184 46.0976 184.194 46.1752 184.428 46.4859C184.932 47.185 185.36 47.9228 185.942 48.583C186.641 49.3986 187.69 49.9034 188.932 50.2141C189.67 50.4083 190.408 50.4471 191.146 50.2529C192.039 50.0199 192.661 49.3986 192.583 48.7384C192.544 48.4665 192.389 48.1947 192.233 47.9228C192.078 47.651 191.845 47.3791 191.651 47.1073C191.612 47.0296 191.534 46.9908 191.457 46.9131C190.214 46.2529 188.971 45.6316 187.728 45.0102C187.573 44.9325 187.34 44.9325 187.146 44.8549C186.02 44.5053 184.971 44.0393 184 43.4956C183.69 43.3015 183.34 43.185 183.029 43.0296C182.059 42.4859 181.398 41.7481 180.738 41.0102C180.311 40.5053 179.961 39.9228 179.651 39.3403C179.146 38.4859 178.874 37.5539 178.874 36.6219C178.874 35.5345 179.107 34.4859 179.69 33.4762C180.039 32.8549 180.466 32.2723 180.932 31.7286C181.165 31.4568 181.476 31.2238 181.826 31.0296C182.874 30.4471 184 30.0587 185.282 29.9811C185.826 29.9422 186.369 29.8257 186.913 29.8257C187.961 29.7869 188.971 29.8257 189.903 30.2529C190.136 30.3694 190.33 30.5248 190.563 30.6413C190.369 30.6801 190.408 30.6801 190.486 30.6413Z" fill="#EE4036"/>
<path fill-rule="evenodd" clip-rule="evenodd" d="M147.837 53.1612C147.828 53.6189 147.817 54.2094 147.844 54.4856C147.863 54.8865 147.845 55.034 147.826 55.1865C147.806 55.3442 147.786 55.5072 147.805 55.9613C147.834 56.2777 147.501 56.2319 147.058 56.1711C146.902 56.1498 146.734 56.1267 146.563 56.1166C146.219 56.0964 145.896 56.0656 145.578 56.0353C145.285 56.0074 144.996 55.9799 144.699 55.9613C143.998 55.9113 143.592 55.897 143.242 55.8848C142.776 55.8685 142.412 55.8558 141.592 55.7671C139.883 55.6118 139.067 55.5341 137.126 55.3399C136.86 55.3233 136.516 55.2783 136.165 55.2323C135.693 55.1706 135.207 55.1069 134.873 55.1069V52.971C134.841 52.7454 134.809 52.3057 134.754 51.5633C134.743 51.4112 134.731 51.2464 134.718 51.0681C134.679 50.7186 135.3 50.5632 135.805 50.5632C136.216 50.5774 136.591 50.6174 136.943 50.655C137.555 50.7204 138.098 50.7784 138.64 50.6797C138.485 50.3302 138.126 49.2914 137.766 48.2526C137.407 47.2137 137.048 46.1749 136.893 45.8254C136.737 45.4759 136.388 45.2428 135.844 45.2817C135.475 45.3011 135.116 45.3108 134.757 45.3205C134.398 45.3302 134.038 45.3399 133.669 45.3593C133.44 45.3593 133.21 45.3995 132.981 45.4396C132.706 45.4877 132.43 45.5359 132.155 45.5147C131.533 45.4759 131.3 45.7477 131.145 46.0972C131.032 46.3874 130.906 46.6709 130.78 46.9532C130.603 47.351 130.427 47.7466 130.291 48.1555C129.795 49.5509 129.323 50.9711 128.837 52.4358C128.714 52.8054 128.591 53.1779 128.466 53.5535C128.536 53.5573 128.607 53.561 128.676 53.5647C129.33 53.5995 129.927 53.6312 130.524 53.6312C131.3 53.67 131.65 53.903 131.766 54.4856C131.805 54.6021 131.805 54.7574 131.805 54.8739C131.844 55.2234 131.864 55.5632 131.883 55.903C131.902 56.2428 131.922 56.5826 131.961 56.9322C131.961 57.1859 132.064 57.4137 132.166 57.6368C132.188 57.6869 132.211 57.7367 132.233 57.7865C132.388 58.0972 132.349 58.2914 131.961 58.4856C131.936 58.4978 131.912 58.5104 131.887 58.5231C131.678 58.6316 131.458 58.7452 131.145 58.6409C131.029 58.6021 130.873 58.6409 130.718 58.6797C128.66 59.1458 126.563 59.2234 124.427 59.2623C123.417 59.3011 122.446 59.3788 121.475 59.4564L121.475 59.4564C121.203 59.4759 120.941 59.4856 120.679 59.4953C120.417 59.505 120.155 59.5147 119.883 59.5341C119.728 59.5341 119.582 59.5244 119.436 59.5147C119.291 59.505 119.145 59.4953 118.99 59.4953C118.601 59.4564 118.291 59.1458 118.368 58.8351C118.38 58.779 118.391 58.7238 118.402 58.6691C118.468 58.345 118.529 58.0412 118.563 57.7089C118.64 56.4661 118.679 55.2234 118.718 53.9807C118.757 53.3982 118.873 53.3205 119.572 53.3593H119.844C119.974 53.3593 120.103 53.3604 120.233 53.3615C120.879 53.3669 121.521 53.3723 122.135 53.2428C122.485 53.1652 122.64 53.0098 122.757 52.738C122.899 52.3626 123.046 51.9872 123.193 51.6118C123.486 50.861 123.779 50.1102 124.038 49.3593C124.582 47.8448 125.087 46.3302 125.592 44.8157C125.631 44.6797 125.66 44.5535 125.689 44.4273C125.718 44.3011 125.747 44.1749 125.786 44.039C125.857 43.8257 125.933 43.6177 126.009 43.411C126.14 43.0532 126.27 42.6995 126.368 42.3302C126.873 40.5826 127.378 38.8739 128.038 37.1652C128.427 36.1943 128.815 35.2234 129.048 34.2137C129.229 33.4629 129.48 32.7121 129.73 31.9613C129.855 31.5859 129.98 31.2105 130.097 30.8351C130.112 30.7893 130.127 30.7439 130.143 30.6988C130.286 30.2848 130.419 29.8961 130.174 29.4759C130.019 29.2428 130.446 28.8545 130.718 28.8545C130.931 28.8678 131.139 28.8856 131.346 28.9034C131.743 28.9374 132.135 28.971 132.543 28.971C132.652 28.9756 132.748 28.9801 132.837 28.9843C133.506 29.0163 133.803 29.0305 136.854 28.8933C137.553 28.8545 137.941 29.3205 138.019 29.5924C138.197 30.0778 138.409 30.5632 138.62 31.0487C138.917 31.7283 139.213 32.4079 139.417 33.0875C139.417 33.0875 139.495 33.437 139.572 33.5924C139.579 33.612 139.585 33.6317 139.592 33.6514C139.598 33.67 139.605 33.6887 139.611 33.7073C139.698 33.9603 139.79 34.2132 139.883 34.4661C139.99 34.7574 140.097 35.0487 140.194 35.3399C140.368 35.8642 140.524 36.3982 140.679 36.9322C140.834 37.4661 140.99 38.0001 141.165 38.5244C141.747 40.1166 142.485 41.7089 143.223 43.2623C143.38 43.5904 143.666 44.5796 144.003 45.744C144.663 48.0246 145.517 50.9773 145.98 50.9516C146.155 50.9322 146.32 50.9613 146.485 50.9904C146.65 51.0195 146.815 51.0487 146.99 51.0292C147.456 50.9516 147.844 52.3496 147.844 52.6992C147.844 52.8113 147.841 52.9753 147.837 53.1612ZM133.149 40.0164C133.036 40.4239 132.924 40.8325 132.815 41.2428C133.786 41.1263 134.718 41.0487 135.728 40.971C135.6 39.7168 135.185 38.5469 134.772 37.3835C134.559 36.7818 134.346 36.1819 134.174 35.5729C133.961 37.0655 133.557 38.5341 133.149 40.0164Z" fill="#EE4036"/>
<path fill-rule="evenodd" clip-rule="evenodd" d="M175.761 48.5547C175.936 49.2378 176.112 49.9245 176.077 50.6413C176.062 50.887 176.083 51.1328 176.105 51.3833C176.137 51.7663 176.171 52.1605 176.077 52.583C175.844 54.1753 175.107 55.5345 173.825 56.6607C172.699 57.6704 171.573 58.6413 170.097 59.1461C169.281 59.4568 168.466 59.7675 167.573 59.9228C167.138 60.0005 166.703 60.0906 166.268 60.1807C165.615 60.3159 164.963 60.451 164.31 60.5442C163.184 60.6995 162.058 60.8161 160.893 60.8937C159.767 60.9714 158.641 61.0491 157.514 61.0491C156.815 61.0296 156.126 60.9908 155.437 60.952C154.747 60.9131 154.058 60.8743 153.359 60.8549C152.656 60.8549 151.989 60.8901 151.29 60.927L151.184 60.9326C151.152 60.9362 151.118 60.9401 151.085 60.9442C150.757 60.9832 150.386 61.0273 150.174 60.8161C149.898 60.5121 149.956 60.1885 150.012 59.8732C150.035 59.7454 150.058 59.6189 150.058 59.4957C150.058 58.4083 150.058 57.3597 150.019 56.3112C149.993 55.7675 149.933 55.2238 149.872 54.6801C149.842 54.4083 149.812 54.1364 149.786 53.8646C150.019 53.6316 150.291 53.5928 150.679 53.5928C151.694 53.6507 152.687 53.6438 153.723 53.6365C154.075 53.6341 154.432 53.6316 154.796 53.6316C154.81 53.4258 154.828 53.2249 154.846 53.0271C154.88 52.6649 154.912 52.3133 154.912 51.9617C154.912 51.3559 154.87 50.75 154.828 50.1442C154.801 49.7403 154.773 49.3364 154.757 48.9326C154.744 48.6681 154.735 48.3992 154.726 48.1273C154.709 47.6005 154.692 47.0627 154.641 46.5248C154.621 46.3112 154.582 46.0879 154.543 45.8646C154.505 45.6413 154.466 45.418 154.446 45.2044L154.44 45.1369C154.326 43.8792 154.215 42.6576 154.291 41.3986C154.291 41.0984 154.25 40.812 154.208 40.5229C154.18 40.3258 154.151 40.1275 154.136 39.9228L154.136 39.9228C154.058 39.185 153.98 38.4471 153.864 37.7093C153.825 37.4957 153.776 37.2821 153.728 37.0685C153.679 36.8549 153.631 36.6413 153.592 36.4277C153.553 36.2724 153.514 36.117 153.514 35.9617V35.2627C153.39 35.2805 153.273 35.2901 153.165 35.2991C153.037 35.3097 152.92 35.3193 152.815 35.3403C152.388 35.4568 151.922 35.4957 151.456 35.4957H150.757C150.736 35.4957 150.713 35.4964 150.689 35.4971C150.532 35.5019 150.325 35.5083 150.291 35.3403C150.252 35.1461 150.213 34.9131 150.252 34.6801C150.258 34.6518 150.263 34.6243 150.269 34.5974C150.301 34.4398 150.33 34.3023 150.33 34.1364C150.317 33.892 150.313 33.6518 150.308 33.4144C150.3 32.9354 150.291 32.4679 150.213 32.0005C150.174 31.5345 150.097 31.0296 150.019 30.5248C150.01 30.4087 149.979 30.2681 149.945 30.1193C149.834 29.6208 149.702 29.0312 150.33 28.9714C150.874 28.9131 151.427 28.8549 151.98 28.7966C152.534 28.7384 153.087 28.6801 153.631 28.6219C153.976 28.5953 154.317 28.5551 154.655 28.5153C155.304 28.4387 155.943 28.3633 156.582 28.3889C156.901 28.3954 157.221 28.3997 157.542 28.404C159.136 28.4256 160.752 28.4474 162.369 28.7384C164.194 29.0491 165.864 29.7093 167.495 30.4471C168.699 30.9908 169.631 31.8063 170.369 32.8549C170.874 33.5539 171.378 34.2918 171.728 35.0685C172.272 36.3112 172.349 37.5928 172.077 38.8743C171.883 39.8063 171.456 40.6607 170.835 41.4374C170.631 41.6995 170.361 41.8961 170.092 42.0927C170.002 42.1583 169.912 42.2238 169.825 42.2918C169.849 42.2918 169.888 42.3066 169.941 42.3271C169.975 42.3398 170.013 42.3546 170.058 42.3694C171.728 42.9131 172.932 44.0005 173.98 45.2432C174.757 46.1364 175.378 47.1461 175.689 48.2724C175.713 48.3664 175.737 48.4605 175.761 48.5547ZM163.068 34.8355C164.31 35.0296 165.32 35.7675 165.747 36.8937C166.213 38.0976 166.058 38.8743 164.932 39.5345C163.728 40.2335 162.446 40.6219 161.048 40.7384H160.543C160.388 38.719 160.233 36.7772 160.039 34.7966C160.445 34.8117 160.845 34.7976 161.239 34.7837C161.863 34.7617 162.473 34.7403 163.068 34.8355ZM169.204 51.9228C168.427 52.9714 167.301 53.5151 165.98 53.7869C164.388 54.0976 162.718 54.2529 161.087 54.2141C160.971 54.2141 160.854 54.2141 160.699 54.1753C160.686 53.9552 160.677 53.7351 160.669 53.5151C160.651 53.0749 160.634 52.6348 160.582 52.1947C160.514 51.5156 160.417 50.8365 160.315 50.1314L160.272 49.8258L160.228 49.564C160.126 48.9602 160.029 48.3787 159.961 47.7675C159.935 47.5838 159.962 47.4002 159.994 47.1806C160.009 47.0751 160.026 46.9614 160.039 46.8355C160.297 46.8096 160.522 46.7837 160.746 46.7578C160.858 46.7449 160.971 46.7319 161.087 46.719C161.223 46.6995 161.359 46.6898 161.495 46.6801C161.631 46.6704 161.767 46.6607 161.903 46.6413C164.116 46.2918 166.174 46.719 167.922 48.0005C168.815 48.6219 169.32 49.5151 169.514 50.486C169.631 50.9908 169.514 51.4957 169.204 51.9228Z" fill="#EE4036"/>
<path d="M146.602 60.1555C146.33 60.039 144.854 59.8448 144.582 59.8448C141.126 59.6118 138.33 58.7963 138.291 59.2623C138.175 60.9322 137.476 63.3011 137.281 63.806C136.777 65.0875 135.301 65.7865 134.019 66.4079C133.437 66.6797 132.854 66.9904 132.155 66.9904C131.301 66.9904 130.485 66.9516 129.67 66.7574C127.612 66.3302 125.747 65.5147 123.883 64.738C122.757 64.272 121.67 63.7283 120.544 63.3011C119.456 62.8739 118.291 62.6021 117.087 62.4467C116.971 62.4467 116.66 62.4079 116.349 62.4079H116.311C115.922 62.3691 115.495 62.3302 115.107 62.2914C114.641 62.2914 114.175 62.2914 113.631 62.2914C113.592 61.6312 113.514 61.0487 113.514 60.4662C113.476 59.2623 113.398 58.0196 113.398 56.8157C113.398 55.6506 113.398 54.4856 113.553 53.3205C113.709 52.2331 113.786 51.1069 113.903 50.0196C113.98 49.3205 114.058 48.6215 114.136 47.806C113.67 43.3788 113.709 38.9128 113.709 34.4856C114.252 34.4856 114.913 34.5244 115.379 34.4856C116.078 34.4467 116.311 34.4856 117.01 34.4856C117.476 34.4856 117.631 34.5632 117.942 34.4467C118.019 34.4079 118.058 33.8254 118.058 33.7089C117.942 32.8157 117.903 32.8157 117.786 31.9613C117.747 31.6118 117.747 31.3011 117.747 30.9516C117.786 30.3302 117.825 29.7089 117.825 29.1264C117.825 28.971 117.747 28.738 117.631 28.6603C117.32 28.505 116.971 28.3108 116.621 28.272C115.767 28.1555 114.874 28.0778 114.019 28.0778C113.398 28.0778 112.155 28.0778 111.534 28.0778C111.068 28.0778 110.563 28.1166 110.058 28.1166C109.476 28.1166 108.932 28.1166 108.349 28.0778C107.728 28.0778 107.107 28.039 106.524 28.0778C105.631 28.0778 104.777 28.1555 103.922 28.272C103.573 28.3108 103.223 28.4662 102.913 28.6603C102.796 28.738 102.718 28.971 102.718 29.1264C102.718 29.7477 102.796 30.3691 102.796 30.9516C102.796 31.3011 102.796 31.6118 102.757 31.9613C102.641 32.8545 102.602 32.8545 102.485 33.7089C102.485 33.8254 102.485 34.4079 102.602 34.4467C102.913 34.5632 103.068 34.4856 103.534 34.4856C104.233 34.4856 104.466 34.4467 105.165 34.4856C105.67 34.5244 106.408 34.4856 107.029 34.4856C107.184 34.4856 107.301 34.4856 107.417 34.4856C107.417 35.1846 107.417 36.8545 107.417 37.5147C107.417 38.3302 107.379 39.1458 107.34 39.9613C107.223 41.3205 107.107 42.6797 107.107 44.039C107.107 44.4662 107.068 44.8545 107.068 45.2817C107.068 45.8254 107.068 46.3302 107.029 46.8739C107.029 46.9904 107.029 47.1458 107.029 47.2623C107.068 47.4953 107.107 47.7283 107.107 47.9613C107.107 48.5438 107.107 49.0875 107.068 49.67C107.068 50.0584 107.029 50.4467 107.029 50.8351C107.029 51.6118 107.107 52.3885 107.107 53.204C107.107 53.5924 106.99 54.0196 106.99 54.4079C106.99 55.1846 107.107 55.9613 107.107 56.738C107.107 57.903 107.107 59.1069 107.107 60.272C107.107 60.7768 106.874 61.2429 106.951 61.7477C106.99 62.0584 106.718 62.1361 106.447 62.1361C105.709 62.1361 105.01 62.1361 104.272 62.1361C103.806 62.1361 103.534 62.2914 103.456 62.6797C103.223 63.7283 103.262 64.738 103.301 65.7865C103.34 66.6797 103.301 67.573 103.262 68.4273C103.223 68.8933 103.34 69.1652 103.845 69.2817C104.272 69.3594 104.699 69.3982 105.126 69.3982C107.223 69.3594 109.32 69.2817 111.417 69.204C111.961 69.204 112.544 69.1264 113.087 69.1264C113.942 69.1264 114.796 69.1264 115.689 69.1652C116.505 69.3205 118.641 69.5924 119.417 69.7865C120.66 70.0972 121.281 70.2137 123.068 70.7963C124.349 71.2234 125.359 71.4564 126.602 71.8836C127.107 72.039 127.612 72.1555 128.116 72.3108C128.815 72.4662 129.514 72.6603 130.214 72.7768C131.146 72.9322 132.078 73.204 133.048 73.204C134.874 73.204 136.621 73.0098 138.252 72.3108C139.728 71.6506 141.087 70.8351 142.252 69.7865C143.223 68.8545 144.078 67.8836 144.621 66.7186C144.777 66.2914 147.107 60.3497 146.602 60.1555Z" fill="#EE4036"/>
<path fill-rule="evenodd" clip-rule="evenodd" d="M117.916 22.7047C117.929 22.9004 117.941 23.0973 117.941 23.3005C117.941 23.3343 117.945 23.3754 117.949 23.4219C117.964 23.5891 117.985 23.8256 117.863 24.0383C117.844 24.0383 117.825 24.048 117.805 24.0578C117.786 24.0675 117.766 24.0772 117.747 24.0772C117.667 24.1039 117.55 24.0938 117.447 24.085C117.4 24.0809 117.356 24.0772 117.32 24.0772C117.184 24.0578 117.048 24.048 116.912 24.0383C116.776 24.0286 116.64 24.0189 116.504 23.9995C115.844 23.9218 115.339 23.8442 114.834 23.4558C114.368 23.1063 113.941 22.6791 113.514 22.2519C112.777 21.5518 112.495 20.5369 112.235 19.6055C112.221 19.5553 112.207 19.5054 112.194 19.4558C112.174 19.389 112.154 19.3214 112.134 19.2532C111.958 18.6479 111.77 17.9988 111.456 17.4752C111.253 17.1208 111.001 16.7828 110.753 16.4506C110.621 16.2733 110.49 16.0976 110.368 15.9218C110.329 15.8442 110.252 15.7277 110.174 15.6888C110.05 15.5958 109.901 15.6018 109.748 15.608C109.709 15.6096 109.67 15.6111 109.63 15.6111C109.593 15.6111 109.471 15.5952 109.308 15.5738C108.795 15.5069 107.873 15.3863 107.844 15.5335C107.757 16.027 107.735 16.5639 107.713 17.0955C107.706 17.2751 107.699 17.4541 107.689 17.6306C107.65 18.0966 107.65 18.5626 107.65 19.0286V20.1937H107.728C107.961 20.1937 108.271 20.2325 108.504 20.4655C108.776 20.6985 108.776 21.048 108.776 21.3199V22.0189V22.6403C108.776 22.7179 108.776 22.8344 108.737 22.951L108.698 23.0675C108.689 23.1068 108.684 23.1511 108.679 23.1959C108.664 23.3283 108.649 23.4656 108.504 23.4946C108.41 23.5182 108.301 23.4988 108.195 23.4799C108.127 23.4678 108.06 23.4558 107.999 23.4558C107.728 23.417 107.456 23.417 107.184 23.417H106.99C106.906 23.417 106.834 23.4058 106.767 23.3955C106.709 23.3865 106.655 23.3781 106.601 23.3781C106.402 23.3781 106.213 23.3679 106.029 23.358C105.854 23.3485 105.684 23.3393 105.514 23.3393C105.381 23.3393 105.254 23.3348 105.129 23.3304C104.887 23.3218 104.657 23.3137 104.427 23.3393H104.155C104.019 23.3393 103.883 23.349 103.747 23.3587C103.611 23.3684 103.475 23.3781 103.339 23.3781C103.278 23.3781 103.211 23.3901 103.143 23.4023C103.037 23.4211 102.929 23.4406 102.834 23.417C102.689 23.388 102.674 23.2506 102.66 23.1183C102.655 23.0734 102.65 23.0291 102.64 22.9898L102.601 22.8733C102.601 22.815 102.592 22.7665 102.582 22.7179C102.572 22.6694 102.562 22.6209 102.562 22.5626V21.9412V21.2422C102.562 20.9704 102.601 20.6597 102.834 20.3878C103.067 20.1548 103.378 20.116 103.611 20.116H103.805H103.844C103.844 19.9995 103.854 19.8927 103.863 19.7859C103.873 19.6791 103.883 19.5723 103.883 19.4558C103.902 19.3005 103.912 19.1548 103.922 19.0092C103.931 18.8636 103.941 18.7179 103.961 18.5626C103.98 18.2908 103.999 18.0286 104.019 17.7665C104.038 17.5044 104.058 17.2422 104.077 16.9704C104.082 16.8975 104.086 16.8246 104.091 16.7515C104.164 15.6161 104.239 14.4486 104.349 13.2811C104.465 11.9607 104.504 10.7568 104.543 9.43639H103.922C103.611 9.43639 103.067 9.31989 103.029 8.50435V7.3393V6.87328C103.029 6.60144 103.029 6.52377 103.262 6.4461L103.961 6.21309C104.504 6.05775 105.048 6.01891 105.592 6.01891H106.213L106.796 5.90241C107.121 5.81359 107.447 5.79249 107.79 5.77026C107.897 5.76334 108.005 5.7563 108.116 5.74707H108.388H108.893C109.359 5.74707 109.786 5.82474 110.213 5.90241C110.407 5.94125 110.611 5.96066 110.815 5.98008C111.019 5.9995 111.223 6.01891 111.417 6.05775C112.155 6.21309 112.776 6.64027 113.397 7.06746L113.592 7.18396C114.135 7.57231 114.446 8.07717 114.757 8.58202C114.796 8.64027 114.825 8.68882 114.854 8.73736C114.883 8.78591 114.912 8.83445 114.951 8.8927C115.145 9.16455 115.262 9.5529 115.262 9.94125C115.262 11.2228 114.796 12.2713 113.902 13.048L113.747 13.1645C113.611 13.2811 113.465 13.3976 113.32 13.5141C113.174 13.6306 113.029 13.7471 112.893 13.8636C113.037 14.1044 113.256 14.3004 113.467 14.4887C113.596 14.604 113.721 14.7164 113.825 14.8344C114.291 15.3781 114.64 16.0772 114.834 16.7762C114.899 16.9963 114.947 17.225 114.994 17.4537C115.089 17.911 115.184 18.3684 115.417 18.7568C115.805 19.417 116.582 19.7665 117.32 20.0383C117.365 20.061 117.41 20.0804 117.455 20.0993C117.562 20.1453 117.664 20.1888 117.747 20.2713C117.941 20.4655 117.941 20.6985 117.941 20.9315C117.941 21.0629 117.932 21.2034 117.923 21.3485C117.913 21.5037 117.902 21.6642 117.902 21.8247C117.879 22.1264 117.897 22.4142 117.916 22.7047ZM110.407 11.4946C110.562 11.4558 110.679 11.3393 110.718 11.184C110.77 11.0545 110.821 10.8905 110.873 10.7266C110.899 10.6446 110.925 10.5626 110.951 10.4849C110.99 10.1743 110.524 9.47523 110.174 9.35872C109.863 9.28105 109.592 9.24222 109.203 9.24222C108.893 9.24222 108.582 9.24222 108.271 9.28105C108.26 9.28105 108.243 9.27799 108.224 9.27445C108.173 9.26537 108.105 9.25312 108.077 9.28105C108.055 9.30338 108.045 9.31287 108.041 9.32429C108.038 9.33273 108.038 9.34222 108.038 9.35872C108.038 9.43639 108.029 9.52377 108.019 9.61115C108.009 9.69853 107.999 9.7859 107.999 9.86357C107.999 9.91765 107.991 9.98008 107.982 10.047C107.972 10.1243 107.961 10.2075 107.961 10.2908C107.961 10.4415 107.951 10.6014 107.942 10.7661C107.932 10.9407 107.922 11.1206 107.922 11.3005C107.922 11.4558 107.912 11.6111 107.902 11.7665C107.893 11.9218 107.883 12.0772 107.883 12.2325C107.883 12.3102 107.999 12.3102 108.038 12.3102H108.388C108.459 12.2924 108.522 12.2827 108.581 12.2738C108.65 12.2632 108.713 12.2535 108.776 12.2325C108.819 12.218 108.868 12.1982 108.92 12.177C109.008 12.1412 109.106 12.1015 109.203 12.0772C109.281 12.0772 109.359 12.0383 109.436 11.9995C109.475 11.9801 109.504 11.9607 109.533 11.9412C109.562 11.9218 109.592 11.9024 109.63 11.883C109.747 11.8053 109.863 11.7277 109.98 11.6888C110.048 11.6436 110.129 11.6115 110.215 11.5773C110.277 11.5527 110.342 11.5271 110.407 11.4946Z" fill="#0B4653"/>
<path d="M183.145 7.06789C183.106 6.60187 183.106 6.48536 183.029 6.13585C182.951 5.98051 182.757 5.90284 182.64 5.90284C182.524 5.90284 182.213 5.90284 182.135 5.90284H181.514C180.077 6.05818 180 5.94167 178.757 5.90284C178.524 5.90284 178.252 5.864 178.019 5.864C177.436 5.82517 176.854 5.78633 176.271 5.82517C175.767 5.864 175.378 5.864 175.068 5.7475C174.369 5.7475 173.514 5.78633 172.737 5.864H172.621C172.31 5.864 171.961 5.82517 171.65 5.78633C171.534 5.78633 171.378 5.7475 171.262 5.7475C170.524 5.66983 169.631 5.55332 168.854 6.13585L168.776 6.21352L168.737 6.29119C168.543 6.6407 168.427 7.06789 168.427 7.49507C168.427 7.68924 168.466 7.88342 168.504 8.07759C168.543 8.15526 168.543 9.66983 168.699 9.78633C168.854 9.94167 169.048 10.0193 169.281 10.0193C169.398 10.0193 169.514 9.98051 169.592 9.98051H169.631C170.679 9.7475 171.805 9.7475 173.009 9.82517C173.242 9.82517 173.514 9.864 173.747 9.864C173.864 9.864 174.019 9.90284 174.174 9.90284C174.174 10.1747 174.174 10.4854 174.135 10.7572C174.135 10.9902 174.097 11.2621 174.097 11.4951C174.058 11.9611 174.019 12.4271 174.058 12.932C174.058 13.3591 174.058 13.7475 174.058 14.2135C174.058 14.2912 174.019 14.3689 174.019 14.4465C174.019 14.9125 174.058 15.4562 174.058 16.0388C174.058 16.0776 174.058 16.1164 174.019 16.1553C174.019 16.2718 174.019 16.3494 174.019 16.4271C173.941 16.932 173.902 17.4368 173.902 17.9028C173.902 18.097 173.902 18.2912 173.864 18.4854L173.825 18.8737C173.825 19.1844 173.786 19.5339 173.747 19.8446C173.747 19.9611 173.708 20.1164 173.708 20.2329C173.631 20.9708 173.514 21.864 174.097 22.6407L174.174 22.7184L174.252 22.7572C174.602 22.9514 175.029 23.0679 175.456 23.0679C175.65 23.0679 175.844 23.0291 176.038 22.9902C176.116 22.9514 176.194 22.9514 176.271 22.9514C176.349 22.9514 176.466 22.9514 176.543 22.9514C176.66 22.9514 176.776 22.9902 176.893 22.9902H176.932C176.97 22.9902 177.009 23.0291 177.048 23.0291C177.087 23.0291 177.126 23.0291 177.165 23.0291C177.398 23.0291 177.592 22.9514 177.747 22.796C177.902 22.6407 177.98 22.4465 177.98 22.2135C177.98 22.097 177.941 21.9805 177.941 21.9028V21.864C177.708 20.8155 177.708 19.6892 177.786 18.4854C177.786 18.2524 177.825 17.9805 177.825 17.7475C177.864 17.2815 177.902 16.8155 177.864 16.3106C177.864 15.8834 177.864 15.4951 177.864 15.0291C177.864 14.9514 177.902 14.8737 177.902 14.796C177.902 14.33 177.864 13.7863 177.864 13.2038C177.864 13.165 177.864 13.1261 177.902 13.0873C177.902 12.9708 177.902 12.8931 177.902 12.8155C177.98 12.3106 178.019 11.8057 178.019 11.3397C178.019 11.1456 178.019 10.9514 178.058 10.7572L178.097 10.3689C178.097 10.2135 178.135 10.0193 178.135 9.864C178.446 9.864 178.796 9.82517 179.106 9.82517H179.223C179.534 9.82517 179.883 9.864 180.194 9.90284C180.31 9.90284 180.466 9.94167 180.582 9.94167C181.32 10.0193 181.631 10.0582 182.99 9.82517L183.106 9.7475L183.184 9.66983C183.223 9.59216 183.223 9.24264 183.262 9.16497C183.106 8.42711 183.184 7.72808 183.145 7.06789Z" fill="#0B4653"/>
<path fill-rule="evenodd" clip-rule="evenodd" d="M167.836 11.7899C167.903 12.0851 167.966 12.3631 167.999 12.6992C168.116 14.0972 167.961 15.4176 167.65 16.6215C167.417 17.3982 167.106 18.4079 166.368 19.1458C166.252 19.2623 166.096 19.4565 165.98 19.6506C165.923 19.7218 165.871 19.7931 165.821 19.8624C165.734 19.982 165.651 20.0959 165.553 20.1943C165.397 20.3885 165.203 20.505 165.009 20.6215L164.931 20.738C164.737 21.0487 164.504 21.2429 164.271 21.437C164.232 21.4759 164.184 21.5147 164.135 21.5535C164.087 21.5924 164.038 21.6312 163.999 21.67C163.223 22.4467 162.291 22.8351 161.048 22.8739H160.776C160.077 22.8739 159.494 22.7574 158.99 22.5244C158.718 22.3691 158.407 22.2914 158.096 22.2137L158.096 22.2137L157.825 22.1361C156.815 21.8254 155.999 21.1264 155.261 19.9225L155.145 19.7283C155.124 19.6953 155.102 19.6618 155.081 19.6279C154.821 19.2222 154.515 18.7453 154.407 18.1361C154.368 18.0196 154.329 17.8642 154.291 17.7089C154.213 17.3594 154.135 17.0099 154.096 16.6215C153.98 15.1846 154.096 13.8642 154.446 12.6215C154.679 11.806 154.99 10.7574 155.727 10.0196C155.844 9.90305 155.999 9.70888 156.116 9.51471C156.194 9.41762 156.261 9.33024 156.329 9.24286C156.397 9.15548 156.465 9.0681 156.543 8.97102C156.698 8.73801 156.893 8.6215 157.087 8.505C157.164 8.46616 157.242 8.42733 157.281 8.38849C157.359 8.31082 157.397 8.27199 157.475 8.23315C157.533 8.19432 157.592 8.14577 157.65 8.09723C157.708 8.04869 157.766 8.00014 157.825 7.96131C157.863 7.92247 157.912 7.88364 157.961 7.8448C158.009 7.80597 158.058 7.76713 158.096 7.7283C158.795 7.02927 159.65 6.64092 160.737 6.56325C160.76 6.54092 160.769 6.53143 160.78 6.52739C160.789 6.52441 160.798 6.52441 160.815 6.52441V6.56325H161.048H161.32C162.019 6.56325 162.601 6.67975 163.106 6.91276C163.378 7.0681 163.689 7.14577 163.999 7.22344L164.271 7.30111C165.281 7.61179 166.096 8.31082 166.834 9.47587L166.951 9.67005C166.973 9.70546 166.996 9.74141 167.02 9.77792C167.279 10.1817 167.582 10.6536 167.689 11.2234C167.708 11.3011 167.727 11.3691 167.747 11.437C167.766 11.505 167.786 11.573 167.805 11.6506C167.816 11.6977 167.826 11.744 167.836 11.7899ZM160.155 18.4079C160.66 18.4079 161.164 18.2526 161.708 17.9419C162.407 17.5535 162.99 16.971 163.533 16.0001C164.077 15.2234 164.232 14.3691 164.038 13.0487C164.038 12.9845 164.026 12.9322 164.016 12.8851C164.007 12.8467 163.999 12.8118 163.999 12.7768C163.961 12.6215 163.922 12.4273 163.922 12.272C163.883 11.9225 163.689 11.6506 163.378 11.2623C163.339 11.2234 163.261 11.1458 163.223 11.0681L163.106 10.9516C162.873 10.9516 162.679 10.9516 162.524 10.9128C162.329 10.8739 162.174 10.8739 161.98 10.8739C161.475 10.8739 160.97 11.0293 160.427 11.3399C159.766 11.7283 159.184 12.3497 158.562 13.2817C158.019 14.0972 157.863 14.9904 158.058 16.3108C158.058 16.375 158.069 16.4273 158.08 16.4744C158.089 16.5128 158.096 16.5478 158.096 16.5827C158.135 16.738 158.174 16.9322 158.174 17.0875C158.213 17.4759 158.407 17.7477 158.718 18.1361C158.737 18.1749 158.766 18.204 158.795 18.2332C158.825 18.2623 158.854 18.2914 158.873 18.3302H158.951C159.223 18.3302 159.417 18.3302 159.611 18.3691C159.805 18.4079 159.961 18.4079 160.155 18.4079Z" fill="#0B4653"/>
<path d="M152.97 19.3789C152.97 19.1071 152.893 19.0294 152.621 18.9906C152.232 18.9517 151.805 18.9129 151.417 18.9129C151.261 18.9129 151.067 18.9129 150.834 18.9129C150.795 18.7187 150.757 18.4857 150.757 18.2915C150.718 17.2818 150.718 16.2721 150.679 15.2624C150.64 13.9032 150.64 12.544 150.601 11.1847C150.601 11.1071 150.601 11.0294 150.601 10.9129C151.106 10.8352 151.611 11.1071 152.155 10.8741C152.194 10.6411 152.232 10.3692 152.232 10.0974C152.232 9.67018 152.232 9.28183 152.232 8.85464C152.232 8.6993 152.232 8.50513 152.271 8.34979C152.31 8.15561 152.31 8.00028 152.271 7.84494C152.232 7.76727 152.194 7.65076 152.116 7.61193C151.922 7.49542 151.728 7.41775 151.533 7.34008C150.99 7.14591 150.446 6.9129 149.863 6.71872C149.359 6.56338 148.893 6.40804 148.388 6.2527C148.232 6.21387 148.077 6.21387 147.922 6.21387C147.883 6.21387 147.805 6.2527 147.766 6.29154C147.494 6.64105 147.261 6.99057 146.99 7.34008C146.679 7.72843 146.368 8.15561 146.019 8.54396C145.747 8.89348 145.436 9.24299 145.126 9.59251C145.087 9.67018 145.009 9.70901 144.97 9.78668C144.737 10.0197 144.504 10.2915 144.271 10.5245C144.038 10.7964 143.766 11.0682 143.533 11.3401C143.533 11.3789 143.494 11.3789 143.494 11.4178C143.261 11.8449 142.951 12.2333 142.679 12.6216C142.368 12.2333 142.096 11.8449 141.863 11.4178C141.863 11.3789 141.825 11.3789 141.825 11.3401C141.592 11.0682 141.32 10.7964 141.087 10.5245C140.854 10.2915 140.621 10.0197 140.388 9.78668C140.349 9.70901 140.271 9.67018 140.232 9.59251C139.922 9.24299 139.65 8.89348 139.339 8.54396C139.028 8.15561 138.679 7.72843 138.368 7.34008C138.096 6.99057 137.863 6.64105 137.592 6.29154C137.553 6.2527 137.475 6.21387 137.436 6.21387C137.281 6.21387 137.126 6.21387 136.97 6.2527C136.465 6.40804 135.999 6.56338 135.494 6.71872C134.951 6.9129 134.368 7.10707 133.825 7.34008C133.63 7.41775 133.436 7.49542 133.242 7.61193C133.164 7.65076 133.126 7.76727 133.087 7.84494C133.009 8.00028 133.048 8.19445 133.087 8.34979C133.126 8.50513 133.126 8.6993 133.126 8.85464C133.126 9.28183 133.126 9.67018 133.126 10.0974C133.126 10.3692 133.164 10.6411 133.203 10.8741C133.747 11.1071 134.252 10.8352 134.757 10.9129C134.757 10.9906 134.757 11.1071 134.757 11.1847C134.718 12.544 134.718 13.9032 134.679 15.2624C134.679 16.2721 134.64 17.2818 134.601 18.2915C134.601 18.4857 134.562 18.6799 134.524 18.9129C134.291 18.9129 134.135 18.9129 133.941 18.9129C133.553 18.9517 133.126 18.9517 132.737 18.9906C132.465 19.0294 132.388 19.1071 132.388 19.3789C132.388 19.5731 132.427 19.7673 132.427 19.9614C132.427 20.544 132.465 21.1265 132.465 21.709C132.465 21.9809 132.465 22.2139 132.465 22.5245C132.504 22.6411 132.66 22.6799 132.854 22.6799C133.436 22.6799 134.058 22.7187 134.64 22.7576C134.873 22.7576 135.145 22.7576 135.378 22.7576C135.844 22.7576 136.349 22.7187 136.815 22.7187C136.854 22.7187 136.893 22.7187 136.893 22.7576C137.32 22.8352 137.786 22.9129 138.213 22.9517C138.524 22.9906 138.834 23.0294 139.145 23.0682C139.261 23.0682 139.339 23.1071 139.456 23.1071C139.689 23.0682 139.766 22.9906 139.766 22.7576C139.766 22.5634 139.689 22.3692 139.689 22.175C139.689 21.709 139.689 21.243 139.689 20.7381C139.689 20.2721 139.766 19.8061 139.533 19.3401C139.494 19.2236 139.417 19.1847 139.3 19.1459C139.145 19.1459 139.028 19.1459 138.873 19.1459C138.524 19.1847 138.213 19.1847 137.863 19.2236C137.825 18.8741 137.786 18.5634 137.786 18.2527C137.786 17.5925 137.786 16.9711 137.786 16.311C137.786 15.9614 137.825 15.6508 137.825 15.3012C137.786 14.6411 137.747 14.0197 137.708 13.3595C137.708 13.0488 137.708 12.777 137.708 12.4663C137.708 12.4275 137.708 12.3886 137.708 12.3498C137.63 12.1556 137.708 11.9614 137.747 11.6896C137.941 11.8838 138.096 12.0391 138.252 12.1944C138.524 12.5051 138.795 12.8158 139.067 13.1265C139.456 13.5537 139.844 13.9809 140.232 14.408C140.349 14.5245 140.427 14.6799 140.543 14.7964C140.97 15.3401 141.436 15.8838 141.863 16.4275C141.941 16.5051 141.98 16.5828 142.058 16.6605L142.096 16.6993C142.252 16.8546 142.446 17.0488 142.64 17.2042C142.834 17.0488 143.028 16.8935 143.184 16.6993L143.223 16.6605C143.261 16.5828 143.339 16.5051 143.417 16.4275C143.844 15.8838 144.271 15.3401 144.737 14.7964C144.854 14.6799 144.931 14.5245 145.048 14.408C145.436 13.9809 145.825 13.5537 146.213 13.1265C146.485 12.8158 146.757 12.5051 147.028 12.1944C147.184 12.0391 147.339 11.8838 147.533 11.6896C147.572 11.9226 147.65 12.1168 147.572 12.3498C147.572 12.3886 147.572 12.4275 147.572 12.4663C147.572 12.777 147.572 13.0488 147.572 13.3595C147.533 14.0197 147.494 14.6411 147.456 15.3012C147.456 15.6119 147.494 15.9614 147.494 16.311C147.494 16.9711 147.494 17.5925 147.494 18.2527C147.494 18.5634 147.456 18.8741 147.417 19.2236C147.067 19.1847 146.757 19.1847 146.407 19.1459C146.252 19.1459 146.135 19.1071 145.98 19.1459C145.863 19.1459 145.825 19.2236 145.747 19.3401C145.514 19.8061 145.592 20.2721 145.592 20.7381C145.592 21.2042 145.592 21.6702 145.592 22.175C145.592 22.3692 145.553 22.5634 145.514 22.7576C145.475 22.9906 145.592 23.0682 145.825 23.1071C145.941 23.1071 146.019 23.1071 146.135 23.0682C146.446 23.0294 146.757 22.9906 147.067 22.9517C147.494 22.8741 147.961 22.8352 148.388 22.7576C148.427 22.7576 148.465 22.7187 148.465 22.7187C148.931 22.7187 149.436 22.7576 149.902 22.7576C150.135 22.7576 150.407 22.7576 150.64 22.7576C151.223 22.7576 151.844 22.6799 152.427 22.6799C152.621 22.6799 152.776 22.6411 152.815 22.5245C152.815 22.2139 152.815 21.942 152.815 21.709C152.815 21.1265 152.815 20.544 152.854 19.9614C152.97 19.7673 152.97 19.5731 152.97 19.3789Z" fill="#0B4653"/>
<path d="M118.407 8.19442C118.407 8.00025 118.407 7.76724 118.407 7.57306C118.407 7.22355 118.368 6.87403 118.329 6.52452C118.29 6.25267 118.485 6.13617 118.756 6.09733C119.417 5.98083 120.077 6.01966 120.737 6.01966C121.086 6.01966 121.436 5.94199 121.747 5.90316C121.824 5.90316 121.941 5.90316 122.018 5.90316C122.718 5.90316 123.455 5.90316 124.154 5.86432C124.426 5.86432 124.698 5.78665 124.97 5.78665C125.086 5.78665 125.242 5.82549 125.358 5.82549C126.135 5.82549 126.873 5.78665 127.65 5.74782C128.193 5.74782 128.698 5.70898 129.242 5.70898C129.319 5.70898 129.436 5.78665 129.475 5.86432C129.63 6.13617 129.708 6.40801 129.708 6.71869C129.708 6.99054 129.669 7.26238 129.669 7.49539C129.669 7.57306 129.669 7.65073 129.708 7.7284C129.747 8.03908 129.824 8.31093 129.824 8.62161C129.824 9.24296 129.98 9.82549 129.941 10.408C129.941 10.7187 129.941 11.0294 130.057 11.3401C130.135 11.6119 129.941 11.7672 129.708 11.7672C129.397 11.7672 129.125 11.7672 128.815 11.7672C128.504 11.7672 128.193 11.8449 127.921 11.8837C127.805 11.8837 127.611 11.8061 127.611 11.6507C127.572 11.4566 127.572 11.2624 127.533 11.107C127.494 10.641 127.494 10.1362 127.455 9.67015C127.455 9.47597 127.339 9.35947 127.145 9.35947C126.951 9.35947 126.718 9.35947 126.523 9.35947C126.096 9.32063 125.63 9.2818 125.203 9.24296C125.009 9.24296 124.815 9.24296 124.62 9.24296C124.504 9.24296 124.426 9.35947 124.387 9.47597C124.31 9.74782 124.349 10.0197 124.387 10.2915C124.465 10.6799 124.504 11.107 124.582 11.4954C124.62 11.8061 124.659 12.1556 124.698 12.4663C124.698 12.6216 124.737 12.7381 124.737 12.8935C124.737 13.0488 124.737 13.2041 124.776 13.3595C124.776 13.476 124.892 13.5536 125.009 13.5536C125.242 13.5536 125.514 13.5148 125.747 13.476C125.902 13.4371 126.057 13.3983 126.213 13.3595C126.368 13.3206 126.446 13.3595 126.485 13.5536C126.523 13.6313 126.562 13.709 126.562 13.7478C126.562 13.9808 126.562 14.2138 126.562 14.4468C126.562 14.6799 126.523 14.874 126.523 15.107C126.523 15.3789 126.523 15.6896 126.523 15.9614C126.523 16.1168 126.523 16.2721 126.523 16.4274C126.523 16.5828 126.407 16.6993 126.251 16.6993C126.096 16.6993 125.941 16.6604 125.785 16.6604C125.591 16.6604 125.397 16.6604 125.203 16.6993C125.086 16.6993 124.97 16.8935 124.97 17.01C124.97 17.2818 125.009 17.5925 125.009 17.8643C125.009 18.0973 125.009 18.3692 125.048 18.6022C125.086 19.0294 125.125 19.4566 125.203 19.8837C125.203 20.0002 125.281 20.0779 125.436 20.0391C125.708 20.0391 125.941 20.0002 126.213 20.0002C126.446 20.0002 126.679 20.0391 126.912 20.0391C127.184 20.0391 127.455 20.0391 127.727 20.0002C127.883 20.0002 127.96 19.8449 127.921 19.6507C127.883 19.4566 127.883 19.2624 127.844 19.0682C127.805 18.7575 127.805 18.4468 127.766 18.1362C127.766 17.942 127.727 17.7867 127.727 17.5925C127.727 17.476 127.805 17.3595 127.921 17.3206C128.271 17.2041 128.582 17.1265 128.97 17.0876C129.319 17.0488 129.63 17.01 129.98 16.9323C130.135 16.8935 130.29 16.9711 130.368 17.1265C130.446 17.3206 130.485 17.476 130.446 17.709C130.407 17.8255 130.485 17.9808 130.485 18.0973C130.485 18.2915 130.446 18.4857 130.446 18.7187C130.485 19.1847 130.523 19.6896 130.562 20.1556C130.601 20.6216 130.601 21.0876 130.64 21.5925C130.64 21.7478 130.679 21.8643 130.679 22.0197C130.679 22.1362 130.679 22.2138 130.679 22.3303C130.679 22.5245 130.679 22.7575 130.679 22.9517C130.679 23.2624 130.64 23.5342 130.601 23.8449C130.601 24.0002 130.446 24.0779 130.29 24.0779C129.669 24.0391 129.086 24.0391 128.465 24.0002C127.96 23.9614 127.417 23.8837 126.912 23.8449C126.679 23.8061 126.407 23.8061 126.174 23.7672C125.436 23.7284 124.737 23.7284 123.999 23.6896C123.455 23.6507 122.912 23.6119 122.329 23.5731C121.902 23.5342 121.475 23.5342 121.086 23.5342C120.815 23.5342 120.582 23.6119 120.31 23.6507C120.154 23.6896 119.883 23.5342 119.921 23.3401C119.96 23.1459 119.96 22.9129 119.96 22.7187C119.96 22.2138 119.921 21.6701 119.921 21.1653C119.921 20.8934 119.921 20.6604 119.921 20.3886C119.921 20.3109 119.921 20.1944 119.921 20.1168C119.96 20.0002 120.077 19.9614 120.193 19.9614C120.62 19.9614 121.086 19.9614 121.514 19.9614C121.708 19.9614 121.785 19.8837 121.785 19.6896C121.785 19.3401 121.747 18.9905 121.747 18.6799C121.747 18.408 121.708 18.1362 121.669 17.8643C121.63 17.476 121.591 17.1265 121.552 16.7381C121.552 16.5828 121.514 16.3886 121.514 16.2333C121.475 15.7672 121.436 15.2624 121.397 14.7964C121.397 14.5245 121.358 14.2915 121.358 14.0197C121.319 13.4371 121.319 12.8546 121.281 12.3109C121.242 11.7672 121.203 11.2235 121.164 10.7187C121.125 10.408 121.086 10.0585 121.086 9.74782C121.086 9.63131 121.009 9.55364 120.892 9.55364C120.698 9.55364 120.504 9.51481 120.31 9.55364C119.999 9.59248 119.65 9.59248 119.339 9.59248C119.184 9.59248 119.028 9.59248 118.912 9.59248C118.64 9.63131 118.485 9.55364 118.485 9.24296C118.407 8.89345 118.407 8.54394 118.407 8.19442Z" fill="#0B4653"/>
<path d="M195.533 17.0877C195.417 17.0489 195.262 17.0489 195.184 17.0489C194.99 17.0489 194.834 17.0489 194.64 17.0489C194.485 17.0489 194.33 17.0489 194.174 17.0489C194.097 17.0489 194.019 17.0877 193.941 17.0877L193.864 17.1265C193.747 17.1654 193.592 17.1265 193.514 17.3207C193.475 17.5149 193.514 17.7091 193.553 17.9032C193.553 18.1362 193.553 18.7576 193.553 18.9906L190.252 19.2625C190.174 19.2625 190.097 19.2625 190.019 19.2625H189.98C189.941 19.1071 189.902 18.9129 189.902 18.7576L190.019 16.0391H190.058C190.174 16.0391 190.33 16.0391 190.524 16.0391C190.834 16.078 191.106 15.9226 191.378 16.0003C191.378 16.0003 191.805 16.078 191.766 15.4566C191.766 14.7964 191.766 14.1362 191.805 13.5149L191.766 13.01C191.611 12.8158 191.611 12.8158 191.339 12.8158C191.339 12.8158 190.524 12.8547 190.058 12.7382C190.019 12.7382 190.058 12.1945 190.019 12.1945C190.019 12.1168 190.097 10.1751 190.097 10.0197V9.94206C190.174 9.94206 190.252 9.90323 190.368 9.90323C190.485 9.90323 190.873 9.82556 190.99 9.82556C191.922 9.82556 192.427 9.78672 193.359 9.74789H193.553C193.553 10.0197 193.553 10.9906 193.747 11.2624C193.941 11.5343 194.485 11.3013 194.679 11.3013C194.873 11.3013 195.223 11.3401 195.223 10.8353C195.106 9.39837 195.339 7.96148 195.3 6.56342C195.262 5.9809 194.446 6.0974 194.135 6.0974C193.708 6.0974 192.543 6.21391 192.038 6.29158C190.368 6.48575 188.504 6.21391 186.912 6.67993C186.873 6.67993 186.834 6.71876 186.796 6.71876H186.757C186.446 6.7576 186.135 6.79643 185.864 6.83527C185.786 6.83527 185.708 6.8741 185.669 6.8741C185.553 6.91294 185.436 6.95177 185.32 7.02944C185.203 7.14594 185.164 7.26245 185.126 7.41779C185.009 7.92264 185.009 8.4275 184.931 8.97119C184.893 9.2042 184.893 9.39837 184.931 9.63138C184.97 9.74789 185.009 9.86439 185.164 9.94206C185.281 10.0197 185.436 10.0197 185.592 10.0197C185.786 10.0197 186.019 10.0197 186.213 9.9809C186.368 9.9809 186.796 9.86439 186.912 9.9809C186.951 10.0586 186.912 10.1751 186.912 10.2527C186.912 10.3692 186.912 10.4469 186.873 10.5634C186.834 10.9906 186.796 11.4178 186.757 11.845C186.718 12.2333 186.718 12.6217 186.718 13.01C186.718 13.243 186.718 13.5149 186.718 13.7479C186.718 14.0586 186.718 14.3304 186.718 14.6411C186.718 15.4566 186.679 16.311 186.64 17.1265C186.601 17.5149 186.601 17.9421 186.563 18.3304C186.563 18.7576 186.524 19.1459 186.485 19.5343C186.135 19.5343 185.669 19.5731 185.32 19.8061C184.97 20.0391 184.931 20.3887 184.931 20.6605C184.931 20.8935 184.931 21.1265 184.97 21.3595C184.97 21.5537 184.97 21.7479 184.97 21.9809C184.97 22.0974 185.009 22.1751 185.048 22.2916L185.087 22.4081C185.126 22.5634 185.087 22.7964 185.359 22.8353C185.514 22.8741 185.708 22.8353 185.902 22.8353C187.029 22.9518 187.766 22.8741 189.203 22.8353C189.359 22.8353 189.475 22.8353 189.63 22.8353C189.747 22.8353 189.902 22.7964 190.019 22.7964C190.446 22.7964 190.834 22.7576 191.106 22.7576C192.427 22.7964 194.524 22.9518 194.679 22.9129C194.873 22.9129 195.029 22.9129 195.223 22.9129C195.378 22.9129 195.689 22.8741 195.65 22.6023C195.65 20.6605 195.611 19.0294 195.533 17.0877Z" fill="#0B4653"/>
<path d="M77.0484 45.165L43.3785 52.8544L42.1357 76.3495L77.7086 64.1553L77.0484 45.165Z" fill="#EE4036"/>
<path d="M60.4658 27.068L55.1065 5.63114L48.7376 3.37872L11.4172 2.87386L13.5531 4.77677L9.6308 2.67969L1.55313 3.72823L0.621094 5.94182L8.69876 35.301L22.0968 37.8642L21.5143 35.4176L23.1842 36.3108L33.3201 39.7671L38.7182 40.5826L66.757 36.7768L60.4658 27.068Z" fill="#EE4036"/>
<path fill-rule="evenodd" clip-rule="evenodd" d="M84.1549 30.1354L84.2715 30.1742C86.9122 30.9897 88.854 33.6305 88.8151 36.6208C88.8151 40.5043 85.5918 42.4072 85.5918 42.4072C84.8151 42.9509 84.1938 43.6111 83.8831 44.1936C83.7278 44.5431 83.6113 44.8538 83.6113 45.2421L83.5724 55.6111C83.6113 55.9994 83.6113 56.4655 83.6113 57.0091C83.6113 62.1354 81.9802 63.9606 81.0481 64.582V66.0965C81.0481 68.3489 79.1841 70.213 76.9316 70.213C75.0676 70.213 73.4753 68.9315 72.9705 67.2227L69.32 68.3878L38.6792 78.8344V79.1451C38.6792 81.3975 36.8151 83.2616 34.5627 83.2616C32.388 83.2616 30.6015 81.5917 30.4462 79.4557L19.2229 76.3101C18.5239 77.6693 17.1258 78.6014 15.5336 78.6014C13.2812 78.6014 11.4171 76.7373 11.4171 74.4849V74.1354C11.1841 74.0577 10.8346 73.9412 10.5239 73.7858C9.78602 73.3587 8.97048 72.6208 8.15495 71.3004C7.45592 70.213 7.14524 69.281 7.06757 65.4363C7.02873 65.3587 7.02873 65.281 7.02873 65.1645V63.6888V62.1742L6.9899 50.0188C6.9899 50.0188 6.87339 48.0383 4.6598 46.5237C2.2132 45.2033 0.582132 42.6402 0.582132 39.6888C0.582132 36.0771 3.02873 33.048 6.36854 32.1548C6.40737 32.1548 6.4365 32.1451 6.46563 32.1354C6.49475 32.1256 6.52388 32.1159 6.56271 32.1159L0.232617 7.41691C0.232617 7.41691 -1.32078 2.71788 3.96077 1.90234C3.96077 1.90234 46.1355 1.90234 51.1841 2.32953C56.2326 2.75671 57.1647 6.17419 57.1647 6.17419L62.3297 24.8926L83.6501 30.0188C83.8443 30.0577 83.9996 30.0965 84.1549 30.1354ZM5.16466 17.4752C5.35883 18.1354 5.86369 19.6111 6.75689 21.3587C6.75883 21.3606 6.76592 21.3707 6.7782 21.3882C7.01148 21.7205 9.11808 24.7218 13.3977 25.1645C16.2715 25.4363 16.8151 23.1451 16.8151 21.4363C16.2269 18.9561 15.6451 16.502 15.1365 14.3563L15.1332 14.3423C14.401 11.2534 13.8209 8.80596 13.5918 7.84409C12.6598 4.15477 8.93165 3.84409 8.93165 3.84409H4.03844C3.18407 4.15477 2.3297 4.62079 2.25203 5.28098C2.25203 5.28098 2.0967 6.32953 2.25203 6.67904C2.29755 6.77007 2.75643 8.48789 3.44114 11.0511L3.44116 11.0512C3.92496 12.8623 4.52151 15.0955 5.16466 17.4752ZM34.2909 8.50429C18.8346 6.29069 18.1744 15.5722 18.1744 15.5722L16.3103 7.84409C16.3103 7.84409 15.6113 5.12564 13.6307 3.68875L46.7957 4.19361C46.7957 4.19361 48.5045 4.11594 50.2132 4.38778C50.2299 4.39335 50.2673 4.4021 50.3203 4.4145C50.6373 4.48865 51.5116 4.69314 51.8443 5.12564C52.5821 6.05768 52.2326 6.95089 47.9608 6.25186H47.8443C39.2229 4.50429 35.4948 7.1839 34.2909 8.50429ZM69.1647 65.6693L72.854 64.4266C72.854 64.4266 76.2326 63.5334 76.1938 59.8441V57.9412V53.4363L50.9899 59.8441C46.5239 61.3975 43.5336 63.2227 43.3783 66.4849C43.3783 66.5312 43.3805 66.6261 43.3833 66.748C43.3924 67.1373 43.4078 67.8017 43.3783 68.0383V73.7858C43.3783 73.7858 43.4171 74.0189 43.3783 74.3684L69.1647 65.6693Z" fill="#0B4653"/>
<path d="M81.4757 59.3788V45.5924C81.5145 44.7768 81.7087 43.9613 82.097 43.2623C82.7184 42.1749 83.6116 41.2817 84.699 40.6992C85.9417 39.9225 86.6796 38.5244 86.6796 37.0487C86.6796 34.7574 84.9708 32.8545 82.8349 32.8545C82.6019 32.8545 82.33 32.8933 82.097 32.9322C80.8155 33.3593 79.7669 34.3302 79.2232 35.5729C79.1067 36.0001 79.0291 36.3885 78.9902 36.8157V58.136C78.9902 58.7962 79.0291 61.0875 79.0291 62.6797L80.0388 62.3302C80.9708 61.6312 81.3592 60.4273 81.4757 59.3788Z" fill="#EE4036"/>
<path d="M64.5826 10.563C64.5437 10.563 64.5437 10.5241 64.5049 10.4853C64.5049 10.4465 64.5049 10.4465 64.5049 10.4076C64.5049 9.78626 64.5826 9.1649 64.7379 8.54354C64.9709 7.45616 65.3204 6.40762 65.7088 5.35907C65.9418 4.73772 66.1748 4.15519 66.136 3.45616C66.0971 2.95131 66.369 2.40762 66.5631 1.90276C66.6796 1.55325 66.835 1.20373 67.0292 0.893055C67.1068 0.737716 67.2233 0.582376 67.3787 0.427036C67.534 0.232861 67.6893 0.0775214 67.9224 0.155191C68.233 0.271696 68.5437 0.349366 68.8156 0.504706C69.5534 0.85422 69.8641 1.98043 69.3593 2.75713C68.6214 3.96102 68.0777 5.24257 67.4563 6.48529C67.0292 7.33966 66.5243 8.19403 66.0971 9.0484C65.9418 9.39791 65.7088 9.70859 65.4369 9.98043C65.2816 10.1358 65.1262 10.2523 64.9709 10.3688C64.8544 10.4465 64.6602 10.6406 64.5826 10.563Z" fill="#EE4036"/>
<path d="M73.2423 16.0386C73.2423 15.9998 73.2811 15.9609 73.2811 15.9221C73.32 15.8833 73.3588 15.8444 73.3976 15.8056C73.553 15.6891 73.6695 15.5726 73.786 15.4561C73.9025 15.3396 74.019 15.1842 74.1743 15.0677C74.9122 14.3687 75.7666 13.825 76.6209 13.2813C77.6307 12.6211 78.6404 11.9609 79.6889 11.3007C80.0773 11.0289 80.5044 10.7959 80.9316 10.5629C81.3976 10.3299 81.5918 10.3687 81.9802 10.6794C82.2132 10.8736 82.5239 11.0289 82.6792 11.2619C82.8734 11.6114 83.0287 11.9998 82.9899 12.3881C82.9899 12.8153 82.5627 12.9706 82.1743 13.0871C81.553 13.2813 80.854 13.359 80.2714 13.6308C79.1452 14.1745 78.0967 14.7959 77.0093 15.3784C76.2326 15.8056 75.3782 15.8833 74.5239 15.9998C74.3297 16.0386 74.1355 15.9998 73.9413 15.9998C73.7472 16.0386 73.553 16.0774 73.3588 16.0386H73.32C73.32 16.0386 73.2811 15.9998 73.2811 15.9609C73.2035 16.0774 73.2035 16.0774 73.2423 16.0386Z" fill="#EE4036"/>
<path d="M69.9414 12.0772C69.9414 11.9219 70.0967 11.6501 70.1356 11.5724C70.9123 10.3685 71.7278 9.16462 72.5433 7.9219C72.8929 7.37821 73.2035 6.75686 73.5531 6.17433C73.7472 5.82482 73.9802 5.4753 74.2521 5.16462C74.3686 5.00928 74.5239 4.89278 74.6793 4.77627C74.7569 4.6986 74.8346 4.62093 74.9123 4.5821C74.99 4.50443 75.0676 4.42676 75.1841 4.42676C75.3006 4.42676 75.456 4.46559 75.6113 4.46559C75.922 4.50443 76.2327 4.54326 76.5045 4.65977C77.2035 4.89278 77.4754 5.59181 76.8929 6.32967C76.6987 6.56268 76.5045 6.87336 76.2327 6.98986C75.689 7.22287 75.3395 7.65006 75.0288 8.07724C74.2133 9.12579 73.1647 9.94132 72.1938 10.8345C71.8443 11.184 71.4948 11.4947 70.9899 11.6112C70.8346 11.6501 70.7181 11.8054 70.6016 11.8831C70.4463 11.9996 70.2521 12.1549 70.0967 12.1937C70.0579 12.1937 70.0191 12.1937 70.0191 12.1937C69.9414 12.1549 69.9414 12.1161 69.9414 12.0772Z" fill="#EE4036"/>
<path d="M78.1351 21.5149C78.0962 21.4761 78.0186 21.4761 77.9797 21.3984C77.9021 21.3207 77.8244 21.2819 77.7467 21.243C77.5137 21.1654 77.2419 21.2042 77.0477 21.3207C76.9312 21.3596 76.8147 21.3596 76.6982 21.3984C76.6593 21.3984 76.4652 21.4372 76.4263 21.3984C76.3098 21.243 77.3195 20.8159 77.436 20.777C77.7856 20.6217 78.0962 20.5052 78.4457 20.3887C79.1448 20.1557 79.8438 19.9227 80.504 19.6896C81.3972 19.379 82.2904 19.0683 83.2224 18.7964C83.572 18.6799 83.9603 18.6411 84.3487 18.6023C84.6982 18.5634 84.97 18.6023 85.2419 18.913C85.4749 19.1848 85.8632 19.379 86.0574 19.6508C86.4846 20.2333 86.0962 21.0877 85.3972 21.1654C85.0089 21.2042 84.5817 21.2042 84.1933 21.243C83.4555 21.3207 82.6788 21.3984 81.9409 21.5537C81.0477 21.7479 80.1545 21.7091 79.2613 21.5926C79.0283 21.5537 78.7953 21.5537 78.5623 21.5926C78.4069 21.5149 78.2904 21.5537 78.1351 21.5149Z" fill="#EE4036"/>
<path fill-rule="evenodd" clip-rule="evenodd" d="M24.3106 27.3005C24.3106 27.3005 26.097 25.1258 23.8446 26.2908C23.8446 26.2908 23.3397 26.4073 22.796 27.0675C22.7572 26.5627 22.8349 26.0967 22.9902 25.6695C23.4174 24.8151 23.8834 23.9607 24.5048 23.2229C24.5829 23.1291 24.6737 23.0353 24.7669 22.9389L24.7669 22.9389C24.9053 22.7959 25.049 22.6474 25.165 22.485C25.5921 22.0578 26.0582 21.6695 26.6407 21.3976C26.6407 21.3736 26.6555 21.3645 26.676 21.3518C26.6887 21.344 26.7035 21.3348 26.7184 21.32C27.3397 20.6598 28.1553 20.4268 28.9708 20.1937C29.1261 20.1549 29.3591 19.9996 29.4368 19.8442C29.538 19.5408 29.0828 19.5593 28.8341 19.5695L28.834 19.5695L28.8337 19.5695C28.7961 19.571 28.7633 19.5724 28.7378 19.5724C27.9999 19.5336 27.2232 19.6501 26.4853 19.8442C26.136 19.9607 25.515 20.1936 25.2042 20.3101L25.2039 20.3102L25.2038 20.3103C25.2317 20.1706 25.3802 19.9908 25.4903 19.8574C25.5332 19.8054 25.5703 19.7604 25.5921 19.7277C25.6231 19.6783 25.654 19.6278 25.6852 19.5769L25.6854 19.5765L25.6855 19.5764C25.8503 19.3074 26.0239 19.0241 26.2523 18.7957L27.0679 17.9802C27.6116 17.3976 28.1553 16.8539 28.7378 16.3491C28.8931 16.2326 29.0485 16.1161 29.2426 16.0384C29.3009 16.019 29.3494 15.9996 29.398 15.9802L29.398 15.9802L29.398 15.9802C29.4465 15.9607 29.4951 15.9413 29.5533 15.9219L29.7863 15.8054C29.9429 15.7271 30.0969 15.6489 30.2498 15.5712L30.2499 15.5712C30.7037 15.3406 31.1468 15.1155 31.6116 14.9122C31.9222 14.7957 32.2718 14.6792 32.6213 14.6015C32.7378 14.6015 32.8543 14.5627 32.9708 14.5238C33.0171 14.5084 33.0696 14.5052 33.1209 14.5022C33.1986 14.4975 33.2735 14.493 33.3203 14.4462C33.8028 14.028 34.3651 14.1161 34.9192 14.2027L34.9192 14.2028L34.9192 14.2028C35.0341 14.2207 35.1486 14.2387 35.262 14.252C35.8006 14.2803 36.3185 14.3708 36.8459 14.4628C37.0411 14.4969 37.2375 14.5312 37.4368 14.5627C37.5145 14.5627 37.6019 14.5724 37.6892 14.5821C37.7766 14.5918 37.864 14.6015 37.9417 14.6015C38.0193 14.6015 38.097 14.6015 38.1747 14.5627C38.2135 14.5627 38.2523 14.5627 38.2912 14.5238C38.306 14.509 38.3208 14.4998 38.3335 14.492C38.354 14.4793 38.3688 14.4702 38.3688 14.4462C38.3947 14.4203 38.3861 14.3944 38.3775 14.3685L38.3775 14.3685C38.3732 14.3556 38.3688 14.3426 38.3688 14.3297C38.3688 14.2728 38.348 14.2368 38.3216 14.1911L38.3216 14.191C38.312 14.1743 38.3016 14.1563 38.2912 14.1355C38.1747 14.019 38.0582 13.9413 37.9417 13.8637L37.9417 13.8637C37.9222 13.8637 37.9028 13.8539 37.8834 13.8442C37.864 13.8345 37.8446 13.8248 37.8252 13.8248C37.0096 13.4365 36.1941 13.087 35.3786 12.7374L35.3786 12.7374C35.262 12.6986 35.1455 12.6598 34.9514 12.6209C34.9514 12.5821 34.9902 12.5433 35.029 12.5044L35.029 12.5044C35.3397 12.2326 35.6504 11.9996 36.0387 11.8442L36.9708 11.4947C37.3203 11.3394 37.7087 11.184 38.097 11.0675C38.4465 10.951 38.796 10.8345 39.1455 10.7569C39.6892 10.6404 40.2329 10.6015 40.8154 10.6015H40.8543H41.3591C42.4077 10.6404 43.3786 10.718 44.3883 10.9899C44.4271 10.9899 44.5048 10.9899 44.5436 11.0287C44.8931 11.1452 45.2426 11.3394 45.5145 11.5724C45.9417 11.8831 46.2912 12.2326 46.6407 12.6209C46.7005 12.6808 46.7488 12.7867 46.7989 12.8965C46.8789 13.0719 46.9634 13.2573 47.1067 13.2811C47.4562 13.32 47.4562 12.7763 47.3786 12.5821C47.1067 11.9996 46.8737 11.3782 46.6407 10.718C46.6795 10.6986 46.7281 10.6695 46.7766 10.6404C46.8252 10.6112 46.8737 10.5821 46.9125 10.5627C46.9708 10.5238 47.0387 10.4947 47.1067 10.4656C47.1747 10.4365 47.2426 10.4073 47.3009 10.3685C47.3577 10.3685 47.3938 10.3477 47.4395 10.3213L47.4395 10.3213C47.4562 10.3116 47.4743 10.3012 47.4951 10.2908C47.5533 10.2714 47.6213 10.2423 47.6892 10.2132L47.6893 10.2132C47.7572 10.184 47.8252 10.1549 47.8834 10.1355C47.9028 10.1355 47.932 10.1258 47.9611 10.1161C47.9902 10.1064 48.0193 10.0967 48.0387 10.0967L48.5048 9.98016C48.5436 9.94132 48.5824 9.94132 48.6213 9.94132C48.6989 9.9219 48.7766 9.9122 48.8543 9.90249C48.932 9.89278 49.0096 9.88307 49.0873 9.86365H49.1261C50.2523 9.74715 51.3397 9.86365 52.4271 10.1743C52.5436 10.2132 52.6213 10.252 52.6989 10.2908C52.8183 10.3386 52.923 10.401 53.0221 10.4601L53.0221 10.4601L53.0221 10.4601C53.0842 10.4971 53.144 10.5328 53.2038 10.5627C53.5533 10.7763 53.8931 10.9996 54.2329 11.2229C54.5727 11.4462 54.9125 11.6695 55.262 11.8831C55.3396 11.9413 55.4269 12.0091 55.5142 12.077L55.5144 12.0772L55.5145 12.0772L55.5145 12.0773L55.5148 12.0775C55.6021 12.1454 55.6893 12.2132 55.7669 12.2714C55.8057 12.2714 55.8446 12.3103 55.8834 12.3491C55.9417 12.4073 56.0096 12.4656 56.0776 12.5238C56.1455 12.5821 56.2135 12.6404 56.2718 12.6986L56.3106 12.7374C56.6415 13.0316 56.9028 13.3258 57.1934 13.6529L57.1935 13.653L57.1936 13.6531L57.2426 13.7083C57.5145 14.019 57.7863 14.3297 58.097 14.6404C58.2092 14.7525 58.2695 14.9036 58.3304 15.0561L58.3304 15.0562C58.375 15.1676 58.4198 15.2798 58.4854 15.3782C58.6795 15.7471 58.8834 16.1064 59.0873 16.4656C59.2912 16.8248 59.4951 17.184 59.6892 17.553C59.8057 17.7471 59.8446 17.9802 59.8834 18.2132C59.9222 18.4462 60.1164 18.485 60.2718 18.4462C60.4659 18.4462 60.4659 18.252 60.4271 18.0967C60.3572 17.7473 60.2795 17.3979 60.201 17.045L60.2009 17.0449L60.2009 17.0447C60.1049 16.6131 60.0077 16.1763 59.9222 15.7277C60.1164 15.6501 60.3494 15.6889 60.5436 15.7277C60.6213 15.7666 60.7378 15.8054 60.8543 15.8442C61.0873 15.9607 61.3203 16.0384 61.5533 16.1161C62.2912 16.3491 62.9902 16.5821 63.6116 17.0481C63.6892 17.1064 63.7766 17.1743 63.864 17.2423C63.9514 17.3103 64.0387 17.3782 64.1164 17.4365C64.2329 17.553 64.3106 17.6306 64.4271 17.7083C64.8931 18.0578 65.3203 18.4462 65.7087 18.8734C65.7669 18.951 65.8252 19.019 65.8834 19.087C65.9417 19.1549 65.9999 19.2229 66.0582 19.3005C66.097 19.3394 66.1358 19.3782 66.1747 19.4559C66.2087 19.507 66.2428 19.5506 66.2736 19.59C66.313 19.6405 66.347 19.6841 66.3688 19.7277C66.3883 19.7666 66.4174 19.8054 66.4465 19.8442L66.4465 19.8442L66.4465 19.8443C66.4757 19.8831 66.5048 19.9219 66.5242 19.9607C66.5436 19.9996 66.563 20.0287 66.5824 20.0578L66.5825 20.0579C66.6019 20.087 66.6213 20.1161 66.6407 20.1549C66.7572 20.3491 66.8737 20.5433 66.9514 20.7374C66.9708 20.7569 66.9805 20.7763 66.9902 20.7957C66.9999 20.8151 67.0096 20.8345 67.029 20.8539C67.0485 20.8928 67.0679 20.9413 67.0873 20.9899C67.1067 21.0384 67.1261 21.087 67.1455 21.1258C67.1455 21.2035 67.1844 21.2811 67.2232 21.3588C67.2426 21.3976 67.2523 21.4365 67.262 21.4753L67.2621 21.4753C67.2718 21.5142 67.2815 21.553 67.3009 21.5918C67.3397 21.7471 67.3785 21.8636 67.4174 21.9801L67.4174 21.9802C67.4174 22.0257 67.4307 22.0578 67.4418 22.0845C67.4496 22.1033 67.4562 22.1194 67.4562 22.1355C67.4732 22.1866 67.4828 22.2302 67.4915 22.2696C67.5025 22.3201 67.5121 22.3637 67.5339 22.4073L67.534 22.4078C67.6116 22.7572 67.6893 23.1065 67.7669 23.4171C67.9222 24.4268 68.0387 25.3976 67.8057 26.4073C67.7669 26.6015 67.7669 26.8345 67.7669 27.0287C67.7281 27.417 68.0387 27.5724 68.2718 27.3005C68.5436 26.951 68.7378 26.5238 68.8154 26.0967C68.8931 25.8248 68.9708 25.553 69.0485 25.2423C69.1537 25.3241 69.2589 25.3919 69.362 25.4583L69.362 25.4583C69.6014 25.6124 69.8293 25.7592 70.0193 26.0578C70.4077 26.6404 70.7572 27.2229 71.029 27.8442L71.262 28.4268C71.2764 28.477 71.2908 28.526 71.3049 28.5741L71.3049 28.5741C71.3671 28.7861 71.4246 28.9819 71.4562 29.2035C71.4562 29.2628 71.5015 29.3448 71.5403 29.4148C71.5522 29.4365 71.5636 29.457 71.5727 29.4753C71.5921 29.5336 71.6213 29.6015 71.6504 29.6695C71.6795 29.7374 71.7087 29.8054 71.7281 29.8637C71.7655 30.1442 71.8299 30.4247 71.8953 30.7096L71.8953 30.7096L71.8953 30.7097C71.9658 31.0163 72.0373 31.328 72.0776 31.6501V32.1937V32.5044V33.32C72.0776 33.6695 72.0387 34.0578 71.9222 34.4073C71.8446 34.6531 71.7713 34.8988 71.6981 35.1446L71.6979 35.1452C71.5512 35.6371 71.4044 36.129 71.2232 36.6209C71.1345 36.887 71.0233 37.1306 70.9067 37.386L70.9065 37.3864C70.8701 37.4663 70.833 37.5474 70.796 37.6306C70.7766 37.6695 70.7572 37.718 70.7378 37.7666C70.7184 37.8151 70.6989 37.8637 70.6795 37.9025C70.6704 37.9208 70.659 37.9413 70.6471 37.963C70.6083 38.033 70.563 38.115 70.563 38.1743C70.563 38.2556 70.6763 38.2802 70.7712 38.3008C70.8124 38.3097 70.8502 38.3179 70.8737 38.3297C70.9902 38.3685 71.1067 38.4073 71.1844 38.3685C71.4951 38.252 71.8057 38.0967 72.0776 37.9025C72.2718 37.7471 72.4659 37.5141 72.6213 37.32C72.7378 37.1258 72.8931 36.9316 73.0485 36.7374C73.4665 37.051 73.5408 37.4896 73.6077 37.885C73.6154 37.9303 73.623 37.9751 73.631 38.019C73.7475 38.7957 73.864 39.6112 73.864 40.3879C73.864 40.7563 73.757 41.1069 73.6518 41.4517C73.6017 41.6158 73.552 41.7786 73.5145 41.9413C73.4999 41.9852 73.4797 42.0236 73.4603 42.0606C73.4282 42.1218 73.398 42.1794 73.398 42.252C73.398 42.252 71.7281 47.9996 67.6116 48.3491C68.1164 47.184 68.4271 45.7471 68.4271 43.9607C68.4012 43.7277 68.3796 43.4947 68.3581 43.2617V43.2617C68.3149 42.7957 68.2718 42.3297 68.1941 41.8637C68.1358 41.5821 68.08 41.3006 68.0242 41.019C67.8567 40.1743 67.6892 39.3297 67.4562 38.485C67.262 37.786 66.9125 37.1258 66.4465 36.5433C66.2912 36.3491 66.2523 36.1549 66.2912 35.9219C66.4465 34.718 66.5242 33.4753 66.2523 32.2714C66.1918 32.0173 66.1389 31.7632 66.0864 31.5114L66.0864 31.5112C65.9704 30.955 65.8569 30.4104 65.6698 29.9025C65.4782 29.3549 65.19 28.846 64.9006 28.3348L64.9006 28.3347C64.7795 28.1208 64.6582 27.9066 64.5436 27.6889C64.0776 26.9122 63.4562 26.3297 62.7184 25.8248C62.563 25.7083 62.4077 25.5918 62.2135 25.4753C61.9417 25.32 61.7863 25.087 61.631 24.7763C61.3203 24.0772 60.8931 23.4947 60.3883 22.9122C60.1294 22.6274 59.8791 22.334 59.6288 22.0406C59.1283 21.4537 58.6277 20.8669 58.0582 20.3491C57.4368 19.7666 56.6989 19.2617 55.8834 18.9122C55.4692 18.7569 55.055 18.567 54.6408 18.3772L54.6407 18.3772L54.6407 18.3771C54.4336 18.2822 54.2264 18.1873 54.0193 18.0967C52.8931 17.6306 51.7281 17.3588 50.4853 17.5918C50.4271 17.5918 50.3786 17.6015 50.33 17.6112C50.2815 17.6209 50.2329 17.6306 50.1747 17.6306C49.864 17.6695 49.5921 17.7471 49.3203 17.8637C49.2634 17.8637 49.2274 17.8845 49.1817 17.9109C49.165 17.9205 49.1469 17.9309 49.1261 17.9413C49.1106 17.9569 49.0826 17.9724 49.0547 17.9879C49.0127 18.0112 48.9708 18.0345 48.9708 18.0578C48.9708 18.0967 49.0873 18.3297 49.165 18.3297C49.3576 18.2815 49.5204 18.3528 49.6811 18.4232C49.7795 18.4663 49.8772 18.5091 49.9805 18.5238C50.7199 18.5855 51.386 18.8426 52.0563 19.1014L52.0563 19.1014C52.2309 19.1688 52.4058 19.2363 52.5824 19.3005C53.4756 19.6501 54.2523 20.1937 55.029 20.7763C55.5339 21.1258 55.9611 21.5918 56.3883 22.0578C56.9708 22.6792 57.5533 23.3005 58.0582 23.9996C58.7184 24.8539 59.3009 25.786 59.6892 26.8345C59.7205 26.9441 59.7582 27.06 59.797 27.1797L59.797 27.1797C59.8545 27.3569 59.9147 27.5423 59.9611 27.7277C60.0776 28.1161 60.1941 28.5044 60.2329 28.8928C60.2587 29.2019 60.2503 29.494 60.2417 29.7917V29.7918C60.2373 29.9428 60.2329 30.0952 60.2329 30.252C60.2329 30.4073 60.2718 30.5627 60.3494 30.6792C60.3883 30.7569 60.4659 30.8734 60.5436 30.9122C60.6747 30.9777 60.6952 30.905 60.7217 30.8107C60.7266 30.7932 60.7317 30.775 60.7378 30.7569C60.796 30.6404 60.8446 30.5141 60.8931 30.3879C60.9417 30.2617 60.9902 30.1355 61.0485 30.019C61.2426 29.5141 61.4368 29.0093 61.5533 28.4656C61.5715 28.3746 61.5812 28.2921 61.5903 28.2141V28.2141C61.6007 28.1258 61.6104 28.0432 61.631 27.9607C61.7116 28.0413 61.7922 28.1151 61.8697 28.1861C62.0538 28.3546 62.2207 28.5074 62.33 28.6986C62.9125 29.6695 63.4562 30.6792 63.7669 31.7666C64.1164 32.8539 64.2329 33.9802 64.1941 35.1064C64.1603 36.3562 63.7739 37.4886 63.3928 38.6056L63.3924 38.6066C63.3355 38.7734 63.2787 38.9399 63.2232 39.1064C63.1882 39.1764 63.1567 39.2535 63.1244 39.3323L63.1244 39.3324C63.0495 39.5157 62.9706 39.7085 62.8349 39.8442C62.6795 39.9996 62.6795 40.2714 62.796 40.4656C62.8125 40.4821 62.822 40.4916 62.8334 40.497C62.8489 40.5044 62.8679 40.5044 62.9125 40.5044C62.958 40.5044 62.9902 40.4911 63.0169 40.4801C63.0357 40.4723 63.0518 40.4656 63.0679 40.4656C63.1844 40.4268 63.262 40.3879 63.3397 40.3491C63.5625 40.2253 63.7222 40.0542 63.8792 39.886C63.9684 39.7904 64.0567 39.6957 64.1553 39.6112C64.4465 39.3782 64.6722 39.0797 64.898 38.7811C64.9732 38.6816 65.0485 38.5821 65.1261 38.485C65.1844 38.6404 65.2426 38.8054 65.3009 38.9704C65.3591 39.1355 65.4174 39.3005 65.4756 39.4559C65.5222 39.6112 65.5813 39.7666 65.6403 39.9219C65.7288 40.1549 65.8174 40.3879 65.864 40.6209C65.9626 41.1141 65.983 41.576 66.0046 42.0662V42.0662V42.0662C66.017 42.348 66.0298 42.6392 66.0582 42.951C66.0193 45.087 65.2815 50.6015 58.4077 50.6404H58.1358C56.5048 50.5238 55.8834 50.1743 55.7281 50.019C56.9708 49.2035 57.631 48.3879 57.631 48.3879C57.631 48.3879 58.4077 46.6792 57.0873 47.7666C56.1553 48.5433 53.7475 49.0093 53.7475 49.0093C50.563 49.786 47.8057 48.4268 46.097 47.184C44.9708 46.3685 42.7572 44.4268 42.4853 41.786C42.1358 38.5238 41.6698 41.4365 41.6698 41.4365C41.6698 41.4365 41.2815 42.8734 41.9805 44.8151C39.262 45.7083 36.0776 42.5627 35.8446 37.0481C35.8446 37.0481 35.4951 34.6404 34.6795 36.7763C33.864 38.9122 34.4465 41.3588 34.4465 41.3588C34.4465 41.3588 28.5048 42.485 27.8834 33.6306C27.8834 33.6306 27.5339 30.951 27.2232 33.2035C26.9125 35.4559 26.9125 36.6986 26.9125 36.6986C26.9125 36.6986 23.9999 36.3879 23.4174 32.5821C22.8349 28.7763 24.3106 27.3005 24.3106 27.3005ZM56.1301 37.3773L56.13 37.3775C55.9926 37.5781 55.8559 37.7777 55.7281 37.9802C55.3786 38.5238 54.9125 38.9122 54.33 39.3005C54.1358 39.0287 53.9319 38.7666 53.7281 38.5044L53.728 38.5043C53.5241 38.2422 53.3203 37.9801 53.1261 37.7083C52.3106 36.5821 51.3786 35.4947 50.1747 34.7569C50.1358 34.718 50.0582 34.6792 49.9805 34.6792C49.9434 34.6792 49.924 34.6792 49.9096 34.6877C49.8939 34.6969 49.8843 34.7163 49.864 34.7569C49.8252 34.8734 49.8252 34.9899 49.864 35.1064C49.9028 35.2617 49.9805 35.3782 50.097 35.4947C50.6795 36.1161 51.2232 36.7763 51.3397 37.6695C51.3397 37.7083 51.3786 37.8248 51.4174 37.8637C51.898 38.5244 51.9836 39.2781 52.0696 40.0349C52.0948 40.2566 52.1201 40.4786 52.1553 40.6986C52.1553 40.7568 52.165 40.8054 52.1747 40.8539L52.1747 40.8539C52.1844 40.9025 52.1941 40.951 52.1941 41.0093C52.2329 41.9413 51.9999 43.8442 50.097 45.5918C47.4562 47.9996 51.1455 46.3297 51.1455 46.3297C51.1455 46.3297 55.029 45.4753 54.9514 41.7083C55.1111 41.5219 55.3166 41.3081 55.5348 41.081L55.5348 41.081C55.953 40.6457 56.4182 40.1616 56.6989 39.7277C57.0485 39.2229 57.3203 38.6015 57.4756 38.019C57.5792 37.6306 57.6137 37.2423 57.6482 36.8539C57.6655 36.6598 57.6828 36.4656 57.7086 36.2714C57.7086 36.1161 57.6698 35.9219 57.631 35.7666C57.5921 35.6501 57.4756 35.4947 57.398 35.4947C57.2815 35.4947 57.1261 35.5724 57.0873 35.6889C56.8619 36.3087 56.4934 36.8468 56.1301 37.3773ZM35.3397 26.485C35.3786 26.4462 35.4174 26.4073 35.4562 26.3297C36.0264 25.2273 37.0803 24.7202 38.1081 24.2258L38.1747 24.1937C38.6019 23.9607 39.0679 23.8054 39.5339 23.6501C39.262 22.485 38.2912 21.5141 37.2815 20.9316L37.2815 20.9316C36.9708 20.7763 36.6601 20.6209 36.3106 20.5433C36.1553 20.5044 35.9999 20.4656 35.8446 20.4656C35.6504 20.4656 35.5339 20.3103 35.5727 20.1161C35.5727 20.0996 35.5727 20.0901 35.5757 20.0816C35.5797 20.0702 35.5892 20.0607 35.6116 20.0384C35.6892 19.9607 35.9222 19.9219 36.0387 19.9219C36.1164 19.9025 36.2038 19.8831 36.2912 19.8637C36.3786 19.8442 36.4659 19.8248 36.5436 19.8054L36.6388 19.7948C36.9504 19.7598 37.2358 19.7277 37.5533 19.7277C38.2135 19.7277 38.9125 19.9219 39.4951 20.1937C40.6989 20.8151 41.5145 21.9025 41.864 23.3005C42.0443 23.3195 42.2246 23.3362 42.4043 23.3528L42.4043 23.3528C42.9601 23.4042 43.5105 23.455 44.0387 23.5724C45.0096 23.8054 45.9805 24.0772 46.9125 24.4268C47.1921 24.52 47.4298 24.6971 47.6675 24.8741C47.8259 24.9922 47.9844 25.1103 48.1553 25.2035C48.3106 25.2811 48.5048 25.32 48.6989 25.2811C48.9236 25.2645 49.1483 25.2425 49.373 25.2205C50.1969 25.1399 51.0207 25.0592 51.8446 25.2423C52.2718 25.32 52.6601 25.4365 53.0485 25.6306C53.4368 25.8248 53.7863 26.0578 54.0582 26.3685C54.097 26.4268 54.1455 26.485 54.1941 26.5433C54.2426 26.6015 54.2912 26.6598 54.33 26.718C54.3494 26.7569 54.3688 26.786 54.3883 26.8151C54.4077 26.8442 54.4271 26.8734 54.4465 26.9122L54.563 27.1452V27.184H54.5242H54.33H54.1747C54.0296 27.1357 53.8912 27.0739 53.7539 27.0127L53.7539 27.0127C53.5605 26.9264 53.3694 26.8411 53.165 26.7957C52.8543 26.718 52.5048 26.718 52.1553 26.718C52.0531 26.718 51.9468 26.7138 51.839 26.7096L51.8389 26.7096H51.8389C51.6189 26.7009 51.3929 26.692 51.1844 26.718C50.9633 26.7401 50.7423 26.8 50.5141 26.8618L50.5141 26.8618C50.3413 26.9085 50.1645 26.9564 49.9805 26.9899C49.9805 27.556 50.2375 27.9793 50.4821 28.3823L50.4822 28.3823C50.5228 28.4493 50.5631 28.5157 50.6019 28.5821C50.676 28.7179 50.7579 28.8499 50.839 28.9804C51.0128 29.2602 51.1826 29.5335 51.262 29.8248C51.3786 30.2132 51.4562 30.6015 51.4951 31.0287C51.4951 31.0684 51.5086 31.1307 51.5234 31.1987L51.5234 31.1987C51.5519 31.33 51.5851 31.4824 51.5339 31.5336C51.4562 31.6112 51.3009 31.6112 51.1844 31.5336C51.1067 31.4947 51.029 31.3782 50.9902 31.2617C50.7951 30.6765 50.4368 30.2002 50.0746 29.7188C50.0041 29.6252 49.9336 29.5313 49.864 29.4365C49.4756 28.9704 49.0485 28.5821 48.5824 28.1937C48.1941 27.8442 47.8057 27.4947 47.3786 27.184C46.3627 26.4584 45.1774 26.1734 43.9809 25.8858C43.8967 25.8655 43.8124 25.8453 43.7281 25.8248C43.1724 25.7013 42.5923 25.676 42.0266 25.6513C41.8806 25.6449 41.7356 25.6386 41.5921 25.6306L41.4923 25.6223C41.0646 25.5864 40.6655 25.553 40.2329 25.553C40.1629 25.553 40.0889 25.5471 40.0132 25.541C39.7531 25.5202 39.4726 25.4977 39.262 25.7083C39.2232 25.7471 39.1844 25.7471 39.1455 25.7471C38.2226 25.7164 37.4459 26.0756 36.6609 26.4386C36.455 26.5338 36.2486 26.6292 36.0387 26.718C36.0011 26.7369 35.9611 26.7557 35.92 26.7751L35.9199 26.7751C35.7915 26.8357 35.6515 26.9016 35.5339 26.9899C35.4951 27.0287 35.4174 27.0675 35.3397 27.0287C35.3138 27.0287 35.2879 26.9942 35.262 26.9597C35.2491 26.9424 35.2362 26.9251 35.2232 26.9122C35.1844 26.8734 35.1455 26.7957 35.1067 26.718C35.0808 26.718 35.1585 26.649 35.2362 26.5799C35.275 26.5454 35.3138 26.5109 35.3397 26.485ZM30.2135 29.6889C30.2038 29.7083 30.1941 29.7277 30.1747 29.7471C30.1747 29.786 30.1358 29.8248 30.0582 29.8637C30.1358 30.252 30.2135 30.6404 30.33 31.0287C30.446 31.4347 30.7353 31.6891 31.0361 31.9537C31.1381 32.0434 31.2414 32.1343 31.3397 32.2326C32.1941 33.087 33.165 33.7083 34.33 34.019C35.3397 34.2908 36.3494 34.4462 37.4756 34.3685C37.607 34.4999 37.7475 34.6494 37.8926 34.8039C38.0478 34.9691 38.2083 35.14 38.3688 35.3005C38.3974 35.3291 38.4259 35.36 38.455 35.3915C38.5448 35.4885 38.6399 35.5914 38.7572 35.6501C38.9465 35.7312 39.1337 35.8123 39.3198 35.893C39.9354 36.1597 40.5387 36.4212 41.165 36.6598C41.4679 36.7944 41.8292 36.754 42.173 36.7156C42.2258 36.7096 42.2783 36.7038 42.33 36.6986C42.3688 36.6986 42.4077 36.6598 42.4465 36.6209C42.4465 36.6015 42.4562 36.5821 42.4659 36.5627C42.4756 36.5433 42.4853 36.5238 42.4853 36.5044C42.4853 36.4656 42.4465 36.4656 42.4465 36.4656C42.4465 36.4656 42.4077 36.4268 42.3688 36.4268C42.312 36.4268 42.2759 36.4059 42.2302 36.3796C42.2135 36.3699 42.1955 36.3595 42.1747 36.3491C42.1164 36.3103 42.0582 36.2811 41.9999 36.252C41.9417 36.2229 41.8834 36.1937 41.8252 36.1549L41.8251 36.1549C41.5921 36.0384 41.3591 35.9219 41.165 35.7666C40.7766 35.4947 40.4271 35.2229 40.0776 34.8734C39.9222 34.718 39.7669 34.5238 39.6116 34.3297C39.5727 34.2908 39.1844 33.7471 39.2232 33.7083C39.3009 33.6565 39.3829 33.6091 39.4649 33.5616C39.6288 33.4667 39.7928 33.3717 39.9222 33.2423C40.0349 33.1377 40.1475 33.0348 40.2594 32.9325C40.6878 32.541 41.1062 32.1588 41.4756 31.7277C41.6177 31.5572 41.6974 31.3452 41.7756 31.1372C41.8043 31.0609 41.8327 30.9851 41.864 30.9122C41.9417 30.6792 41.7475 30.5238 41.5921 30.4073C41.4368 30.2908 41.2426 30.3685 41.1261 30.485C40.3494 31.2229 39.3786 31.6501 38.33 31.8831C37.2426 32.0772 36.1941 31.9996 35.1455 31.8831C33.9028 31.7666 32.7766 31.417 31.7669 30.6792C31.631 30.5821 31.4853 30.485 31.3397 30.3879C31.1941 30.2908 31.0485 30.1937 30.9125 30.0967C30.8399 30.024 30.7522 29.9665 30.6587 29.9052C30.6023 29.8682 30.5438 29.8298 30.4853 29.786C30.4659 29.7666 30.4465 29.7569 30.4271 29.7471C30.4077 29.7374 30.3883 29.7277 30.3688 29.7083C30.354 29.6935 30.3448 29.6786 30.337 29.666C30.3243 29.6455 30.3152 29.6306 30.2912 29.6306H30.2523C30.2329 29.6501 30.2232 29.6695 30.2135 29.6889Z" fill="#FBD2C0"/>
<path d="M35.3395 27.1457C35.4171 27.1845 35.456 27.1069 35.5336 27.1069C35.689 27.0292 35.8443 26.9127 36.0385 26.835C37.0482 26.4078 37.9802 25.7865 39.1453 25.8641C39.1841 25.8641 39.2229 25.8641 39.2618 25.8253C39.5336 25.5146 39.922 25.67 40.2327 25.67C40.6987 25.67 41.1259 25.7088 41.5919 25.7476C42.3297 25.7865 43.0676 25.7865 43.7278 25.9418C44.9705 26.2525 46.2521 26.5243 47.3783 27.301C47.8055 27.6117 48.1938 27.9612 48.5822 28.3107C49.0482 28.6991 49.5142 29.0874 49.8637 29.5535C50.2909 30.0972 50.7958 30.6408 50.9899 31.3787C51.0288 31.4952 51.0676 31.5729 51.1841 31.6506C51.2618 31.6894 51.456 31.7282 51.5336 31.6506C51.6113 31.5729 51.5336 31.2622 51.4948 31.1457C51.4171 30.7573 51.3783 30.3302 51.2618 29.9418C51.1064 29.5146 50.8346 29.0874 50.6016 28.6991C50.3297 28.2331 50.0191 27.7671 49.9802 27.1069C50.3686 27.0292 50.7569 26.8739 51.1841 26.835C51.4948 26.7962 51.8055 26.835 52.155 26.835C52.5045 26.835 52.854 26.835 53.1647 26.9127C53.5142 26.9904 53.8249 27.1845 54.1744 27.301C54.2132 27.301 54.2909 27.301 54.3297 27.301C54.4074 27.301 54.4463 27.301 54.5239 27.301H54.5628V27.2622C54.5239 27.1845 54.4851 27.1069 54.4463 27.0292C54.4074 26.9515 54.3686 26.8739 54.3297 26.835C54.2521 26.7185 54.1744 26.602 54.0579 26.4855C53.7861 26.1748 53.4365 25.903 53.0482 25.7476C52.6598 25.5535 52.2327 25.437 51.8443 25.3593C50.7958 25.1263 49.7472 25.3205 48.6987 25.3981C48.5433 25.3981 48.3103 25.3981 48.155 25.3205C47.7278 25.0874 47.3395 24.6991 46.9123 24.5438C45.9802 24.1942 45.0094 23.9224 44.0385 23.6894C43.3395 23.534 42.5628 23.4952 41.8637 23.4175C41.553 22.0195 40.7375 20.9321 39.4948 20.3107C38.8734 20.0001 38.2132 19.8447 37.553 19.8447C37.2035 19.8447 36.854 19.8447 36.5433 19.9224C36.388 19.9612 36.1938 20.0001 36.0385 20.0389C35.922 20.0777 35.689 20.0777 35.6113 20.1554C35.6113 20.1554 35.5725 20.1942 35.5725 20.2331C35.5336 20.4273 35.6501 20.5826 35.8443 20.5826C35.9996 20.5826 36.155 20.6214 36.3103 20.6603C36.6598 20.7379 36.9705 20.8933 37.2812 21.0486C38.2909 21.6311 39.2618 22.602 39.5336 23.7671C39.0676 23.9612 38.6016 24.1166 38.1744 24.3107C37.1259 24.8156 36.0385 25.3593 35.456 26.4467C35.4171 26.4855 35.3783 26.5632 35.3395 26.602C35.2618 26.6797 35.1064 26.835 35.1064 26.9515C35.1064 27.0292 35.1841 27.068 35.223 27.1457C35.2618 27.068 35.2618 27.1457 35.3395 27.1457Z" fill="#EE4036"/>
<path d="M31.4168 32.2328C32.2711 33.0872 33.2032 33.7085 34.4071 34.0192C35.4168 34.2911 36.4265 34.4464 37.5527 34.3687C37.8245 34.6794 38.1352 34.9901 38.4459 35.3008C38.5624 35.4173 38.6789 35.5726 38.8342 35.6503C39.6109 35.9998 40.4265 36.3493 41.242 36.66C41.6304 36.8153 42.0187 36.7377 42.4071 36.6988C42.4459 36.6988 42.4847 36.6212 42.5236 36.6212C42.5236 36.5823 42.6012 36.5435 42.5624 36.5046C42.5624 36.5046 42.5624 36.5046 42.5236 36.4658C42.4847 36.4658 42.4459 36.427 42.4459 36.427C42.3682 36.3881 42.3294 36.3493 42.2517 36.3493C42.1352 36.2716 42.0187 36.2328 41.9022 36.1551C41.6692 36.0386 41.475 35.8833 41.242 35.7668C40.8537 35.4949 40.4653 35.2231 40.1546 34.8736C39.9993 34.7182 39.844 34.5241 39.6886 34.3299C39.6498 34.2911 39.2614 33.7474 39.3003 33.7085C39.5333 33.5532 39.8051 33.3978 39.9993 33.2425C40.543 32.7377 41.0478 32.2716 41.5527 31.7279C41.7469 31.4949 41.8634 31.1843 41.941 30.9124C42.0187 30.6794 41.8245 30.5241 41.6692 30.4076C41.5139 30.3299 41.3197 30.3687 41.2032 30.4852C40.3876 31.2231 39.4556 31.6503 38.4071 31.8833C37.3585 32.1163 36.31 31.9998 35.2226 31.8833C33.9799 31.7668 32.8537 31.4173 31.844 30.6794C31.5721 30.4852 31.3003 30.2911 30.9896 30.0969C30.8342 29.9804 30.6789 29.9027 30.5624 29.7862C30.5236 29.7474 30.4847 29.7474 30.4459 29.7085C30.4071 29.7085 30.4071 29.6697 30.3682 29.6309H30.3294C30.2906 29.6309 30.2517 29.7085 30.2517 29.7474C30.2129 29.7862 30.2129 29.825 30.2129 29.8639C30.2906 30.2522 30.3294 30.6406 30.4847 31.0289C30.5624 31.5726 31.0284 31.8833 31.4168 32.2328Z" fill="#EE4036"/>
<path d="M53.165 37.6694C52.3107 36.5431 51.4175 35.4946 50.2136 34.7179C50.1359 34.6791 50.0971 34.6402 50.0194 34.6402C49.9417 34.6014 49.9417 34.6402 49.9029 34.7179C49.8641 34.8344 49.9029 34.9509 49.9029 35.0674C49.9417 35.2228 50.0194 35.3393 50.1359 35.4558C50.7184 36.0771 51.2233 36.7762 51.3786 37.6305C51.3786 37.7082 51.4175 37.7859 51.4563 37.8247C52.0776 38.6791 52 39.6888 52.1942 40.6597C52.1942 40.7762 52.233 40.8538 52.233 40.9703C52.2718 41.9024 52.0388 43.8053 50.1359 45.5529C47.4951 47.9606 51.1844 46.2907 51.1844 46.2907C51.1844 46.2907 55.0679 45.4364 54.9903 41.6694C55.4175 41.1257 56.3107 40.349 56.7378 39.6888C57.0874 39.1839 57.3204 38.5626 57.5145 37.98C57.6699 37.4364 57.7087 36.815 57.7475 36.2325C57.7475 36.0771 57.7087 35.883 57.6699 35.7276C57.631 35.6111 57.5145 35.4558 57.4369 35.4558C57.3204 35.4558 57.165 35.5723 57.1262 35.6499C56.8155 36.5043 56.233 37.2033 55.767 37.9412C55.4563 38.4849 54.9903 38.8344 54.4077 39.2228C53.9417 38.7179 53.5534 38.2131 53.165 37.6694Z" fill="#EE4036"/>
<path fill-rule="evenodd" clip-rule="evenodd" d="M75.5032 39.334C75.4989 39.4159 75.4948 39.4964 75.4948 39.5726C75.4948 39.9998 75.4559 40.427 75.3783 40.7377C75.3783 40.8348 75.3686 40.9222 75.3588 41.0095C75.3491 41.0969 75.3394 41.1843 75.3394 41.2814C75.3176 41.3032 75.3081 41.3372 75.297 41.3767C75.2883 41.4075 75.2788 41.4415 75.2618 41.4756C74.0579 48.5435 68.854 49.9416 66.2909 50.1746C63.1453 53.3979 57.6307 52.3493 57.6307 52.3493C57.6307 52.3493 56.4268 52.0387 55.6113 51.6503C54.9122 51.4173 54.0579 51.1455 53.4365 50.9513C45.0482 51.8445 42.0579 46.8348 42.0579 46.8348C37.1258 48.66 35.0287 43.6115 35.0287 43.6115C27.7666 44.7765 26.9899 38.9125 26.9899 38.9125C26.9899 38.9125 24.5821 39.1843 22.6016 36.194C20.7375 33.3979 21.3977 30.6794 21.3977 30.6794C21.5142 30.1358 21.6307 29.6309 21.7472 29.2037C21.5919 28.893 21.3977 28.5824 21.3977 28.5824C21.0482 28.2717 20.854 27.7668 20.8152 27.3008C20.6598 25.8251 20.8928 24.3882 21.3977 23.029C21.4501 22.9032 21.4969 22.7802 21.5425 22.66C21.6661 22.3351 21.7817 22.0309 21.9802 21.7474C21.9992 21.722 22.0255 21.6894 22.056 21.6516C22.2122 21.4577 22.4787 21.1268 22.4462 20.9319C21.9414 18.3688 23.4171 15.6503 25.5142 14.2523C25.6188 14.1756 25.7221 14.0976 25.8253 14.0198C26.2969 13.664 26.7659 13.3103 27.3394 13.0872C28.3103 12.6989 29.2812 12.3493 30.3297 12.2717C30.7957 12.2328 31.2229 12.194 31.6501 12.1552C31.7666 12.1552 31.922 12.0775 31.9996 11.9998C32.621 11.262 33.4365 10.7183 34.2909 10.2523C35.3394 9.70857 36.388 9.20372 37.553 8.93187C37.5943 8.92204 37.6355 8.91222 37.6766 8.90241C38.4474 8.71844 39.1885 8.54156 39.9996 8.50469C40.2571 8.50469 40.5188 8.49615 40.782 8.48757C41.3128 8.47026 41.8493 8.45277 42.3686 8.50469C42.799 8.55251 43.2294 8.65924 43.678 8.77047C43.9579 8.83987 44.2449 8.91102 44.5433 8.97071C45.9414 8.27168 47.5336 7.88333 49.2035 7.80566C50.6016 7.76682 51.922 7.961 53.2423 8.34935C53.8923 8.57684 54.4879 8.91312 55.0746 9.2444C55.189 9.30898 55.3031 9.37337 55.4171 9.43673C55.4742 9.46527 55.5336 9.49382 55.5942 9.52293C55.781 9.61265 55.979 9.7078 56.155 9.82508C56.8775 10.3277 57.4222 10.9828 57.974 11.6465C58.1043 11.8033 58.235 11.9605 58.3686 12.1163C58.554 12.3327 58.7148 12.549 58.8902 12.785C58.9352 12.8455 58.9812 12.9073 59.0287 12.9707C59.9168 12.7487 60.8048 13.0202 61.6592 13.2815C61.7015 13.2944 61.7438 13.3074 61.786 13.3202C62.019 13.3979 62.2132 13.4756 62.4074 13.5921C62.6562 13.7579 62.9405 13.8671 63.2268 13.9772C63.6109 14.1247 63.9988 14.2737 64.3103 14.5629C64.7374 14.9124 65.1646 15.3007 65.5917 15.689L65.5919 15.6892C66.6404 16.6212 67.4171 17.7086 68.0773 18.9125C68.621 19.9222 68.9705 21.3591 69.1258 22.3688L70.1744 22.9513C71.1453 23.495 71.8054 24.3493 72.3491 25.2814L72.3492 25.2814C72.8152 26.0969 73.2812 26.9125 73.5142 27.8445C73.598 28.2466 73.7251 28.6198 73.8519 28.9921C74.0191 29.4828 74.1858 29.9721 74.252 30.5241C74.252 30.5241 74.4074 31.3396 73.9802 33.2814C73.9414 33.5532 73.9025 33.8251 73.8637 34.0581C74.38 34.517 74.5997 35.1031 74.8202 35.6911C74.8981 35.8992 74.9762 36.1075 75.0676 36.3105C75.4171 37.126 75.4948 37.9804 75.4948 38.8348C75.5209 38.9915 75.5119 39.1658 75.5032 39.334ZM73.4989 41.9443C73.5183 41.9073 73.5384 41.8689 73.553 41.8251C73.5953 41.6876 73.6405 41.55 73.6855 41.4133C73.8055 41.0481 73.9237 40.6884 73.9802 40.3493C73.9802 39.5338 73.9025 38.7571 73.7472 37.9804C73.7227 37.8906 73.7034 37.7974 73.6838 37.7029C73.6101 37.3478 73.5327 36.9749 73.1647 36.6989C73.087 36.7959 73.019 36.893 72.9511 36.9901C72.8831 37.0872 72.8152 37.1843 72.7375 37.2814C72.5821 37.4756 72.388 37.7086 72.1938 37.8639C71.922 38.0581 71.6113 38.2134 71.3006 38.3299C71.1841 38.3299 71.0676 38.3299 70.9899 38.2911C70.9597 38.281 70.9242 38.2735 70.8882 38.266C70.7857 38.2444 70.6792 38.222 70.6792 38.1358C70.6792 38.0764 70.7246 37.9944 70.7633 37.9244C70.7752 37.9028 70.7866 37.8822 70.7957 37.8639C70.8152 37.8251 70.8346 37.7765 70.854 37.728C70.8734 37.6794 70.8928 37.6309 70.9122 37.5921C71.0676 37.2814 71.2229 36.9319 71.3394 36.5824L72.0385 34.3688C72.155 34.0193 72.1938 33.6309 72.1938 33.2814V32.4659V32.1552C72.2194 32.0272 72.2113 31.9161 72.2027 31.7997C72.1983 31.7394 72.1938 31.6777 72.1938 31.6115C72.1564 31.331 72.092 31.0504 72.0266 30.7656C71.9561 30.4589 71.8846 30.1472 71.8443 29.8251C71.8055 29.6697 71.7278 29.5532 71.6501 29.4367C71.6394 29.4154 71.6258 29.394 71.6117 29.3719C71.5744 29.3134 71.5336 29.2494 71.5336 29.1649C71.4948 28.893 71.4171 28.6212 71.3394 28.3882L71.1064 27.8057C70.8346 27.1843 70.4851 26.6018 70.0967 26.0192C69.8637 25.6697 69.5919 25.3202 69.1258 25.126V25.2037C69.0482 25.5144 68.9705 25.7862 68.8928 26.0581C68.8152 26.4853 68.6598 26.9125 68.3491 27.262C68.1161 27.5338 67.8443 27.3396 67.8443 26.9901C67.8443 26.7959 67.8443 26.5629 67.8831 26.3688C68.1161 25.3591 67.9996 24.3493 67.8443 23.3785V23.3008C67.8055 22.9901 67.7278 22.6794 67.6501 22.3688C67.6501 22.2911 67.6501 22.2134 67.6113 22.1358V22.0969C67.6113 22.0514 67.5979 22.0193 67.5869 21.9926C67.5791 21.9738 67.5724 21.9577 67.5724 21.9416C67.5336 21.7863 67.4948 21.6698 67.456 21.5533L67.4559 21.5532C67.4559 21.4756 67.4171 21.3979 67.3783 21.3202C67.3783 21.2426 67.3394 21.1649 67.3006 21.0872C67.2812 21.0484 67.2618 20.9998 67.2423 20.9513C67.2229 20.9027 67.2035 20.8542 67.1841 20.8154C67.1647 20.7959 67.155 20.7765 67.1453 20.7571C67.1355 20.7377 67.1258 20.7183 67.1064 20.6989C67.0482 20.6018 66.9996 20.5047 66.9511 20.4076C66.9025 20.3105 66.854 20.2134 66.7957 20.1163C66.7763 20.0775 66.7569 20.0484 66.7375 20.0193C66.7181 19.9901 66.6987 19.961 66.6792 19.9222C66.6598 19.8833 66.6307 19.8445 66.6016 19.8057C66.5724 19.7668 66.5433 19.728 66.5239 19.6892C66.5031 19.6579 66.4851 19.6295 66.4683 19.6031C66.4226 19.531 66.3866 19.4742 66.3297 19.4173C66.3103 19.3979 66.2909 19.3688 66.2715 19.3396C66.2521 19.3105 66.2326 19.2814 66.2132 19.262C66.0967 19.1066 65.9802 18.9513 65.8637 18.8348C65.4754 18.4076 65.0093 18.0193 64.5821 17.6697L64.5821 17.6697C64.4656 17.5532 64.388 17.4756 64.2715 17.3979C64.1938 17.3396 64.1064 17.2717 64.019 17.2037C63.9317 17.1358 63.8443 17.0678 63.7666 17.0095C63.1734 16.5647 62.4741 16.3321 61.8037 16.1092C61.7719 16.0986 61.7401 16.0881 61.7084 16.0775C61.5919 16.0387 61.4754 15.9901 61.3588 15.9416C61.2423 15.893 61.1258 15.8445 61.0093 15.8057C60.9317 15.7668 60.8152 15.728 60.6987 15.6892C60.5045 15.6503 60.2715 15.6115 60.0773 15.6892C60.2715 16.5047 60.4268 17.2814 60.5821 18.0581C60.621 18.2134 60.621 18.3688 60.4268 18.4076C60.2715 18.4464 60.0773 18.4076 60.0385 18.1746C59.9996 17.9416 59.9608 17.7086 59.8443 17.5144C59.6501 17.1455 59.4462 16.7862 59.2423 16.427C59.0385 16.0678 58.8346 15.7086 58.6404 15.3396C58.6054 15.2696 58.5738 15.1925 58.5416 15.1136C58.4666 14.9303 58.3878 14.7376 58.252 14.6018C58.1161 14.4464 57.9705 14.2911 57.8249 14.1358C57.6792 13.9804 57.5336 13.8251 57.3977 13.6697C57.2423 13.5144 57.087 13.3493 56.9317 13.1843C56.7763 13.0192 56.621 12.8542 56.4656 12.6989L56.4268 12.66C56.3103 12.5435 56.1938 12.427 56.0385 12.3105C55.9996 12.3105 55.9608 12.2717 55.922 12.2328C55.7666 12.0775 55.6113 11.961 55.4171 11.8445C55.2764 11.7507 55.1372 11.6568 54.9989 11.5636C54.4506 11.194 53.9171 10.8343 53.3588 10.5241C53.2812 10.4853 53.1938 10.4367 53.1064 10.3882C53.019 10.3396 52.9317 10.2911 52.854 10.2523C52.7809 10.2035 52.723 10.1854 52.6709 10.169C52.64 10.1593 52.6111 10.1502 52.5821 10.1358C51.4948 9.78624 50.4074 9.70857 49.2812 9.82508H49.2423C49.087 9.82508 48.9317 9.86391 48.7763 9.90275C48.7375 9.94158 48.6987 9.94158 48.6598 9.94158L48.1938 10.0581C48.1744 10.0581 48.1453 10.0678 48.1161 10.0775C48.087 10.0872 48.0579 10.0969 48.0385 10.0969C47.9461 10.12 47.8674 10.1569 47.7943 10.1911C47.7445 10.2144 47.6973 10.2365 47.6501 10.2523C47.5933 10.2523 47.5572 10.2731 47.5115 10.2995C47.4948 10.3091 47.4767 10.3195 47.4559 10.3299C47.3977 10.3688 47.3297 10.3979 47.2618 10.427C47.1938 10.4561 47.1258 10.4853 47.0676 10.5241C47.0287 10.5435 46.9802 10.5726 46.9317 10.6018C46.8831 10.6309 46.8346 10.66 46.7957 10.6794C47.0676 11.3008 47.3006 11.9222 47.5336 12.5435C47.6113 12.7377 47.6113 13.3202 47.2618 13.2426C47.1185 13.2187 47.034 13.0333 46.954 12.858C46.9039 12.7481 46.8556 12.6422 46.7957 12.5824C46.4462 12.2328 46.0579 11.8445 45.6695 11.5338C45.3977 11.3008 45.0482 11.1066 44.6987 10.9901C44.6792 10.9901 44.6501 10.9804 44.621 10.9707C44.5919 10.961 44.5627 10.9513 44.5433 10.9513C43.5777 10.6423 42.5352 10.6022 41.5306 10.5636L41.5142 10.5629H41.0093H40.9705C40.4268 10.5629 39.8443 10.6018 39.3006 10.7183C38.9511 10.7959 38.6016 10.9125 38.2521 11.029C38.0579 11.1066 37.8734 11.1746 37.6889 11.2426C37.5045 11.3105 37.32 11.3785 37.1258 11.4561L36.1938 11.8057C35.8443 11.9222 35.4948 12.1552 35.1841 12.4659C35.1841 12.5047 35.1453 12.5435 35.1064 12.5824C35.3006 12.6212 35.4171 12.66 35.5336 12.6989L35.5336 12.6989C36.3492 13.0484 37.1647 13.3979 37.9802 13.7862C38.019 13.7862 38.0579 13.7862 38.0967 13.8251C38.2521 13.9027 38.3686 13.9804 38.4462 14.0969C38.4851 14.1358 38.5239 14.2134 38.5239 14.2911V14.4076C38.5239 14.4464 38.4851 14.4853 38.4462 14.4853C38.4268 14.4853 38.4074 14.495 38.388 14.5047C38.3686 14.5144 38.3491 14.5241 38.3297 14.5241C38.2909 14.5241 38.2521 14.5338 38.2132 14.5435C38.1744 14.5532 38.1355 14.5629 38.0967 14.5629C37.9414 14.6018 37.7472 14.5629 37.5919 14.5241C37.2229 14.4853 36.8637 14.427 36.5045 14.3688C36.1453 14.3105 35.786 14.2523 35.4171 14.2134C35.2912 14.1986 35.1638 14.1767 35.0362 14.1548C34.4945 14.0617 33.9468 13.9676 33.4754 14.4076C33.4286 14.4544 33.3536 14.4589 33.2759 14.4636C33.2246 14.4667 33.1722 14.4698 33.1258 14.4853C33.0093 14.4853 32.8928 14.5241 32.7763 14.5629L32.7763 14.5629C32.4268 14.6406 32.0773 14.7183 31.7666 14.8736C31.3018 15.077 30.8588 15.302 30.4049 15.5326C30.2521 15.6102 30.0979 15.6885 29.9414 15.7668L29.7084 15.8833C29.5919 15.9222 29.4754 15.961 29.3977 15.9998C29.2035 16.0775 29.0482 16.194 28.8928 16.3105C28.3103 16.8542 27.7666 17.3979 27.2229 17.9416L26.4074 18.7571C26.1789 18.9856 26.0053 19.2689 25.8405 19.5379C25.8092 19.589 25.7782 19.6396 25.7472 19.6892C25.6695 19.8057 25.6307 19.9222 25.5919 20.0387C26.3686 19.6892 27.8443 19.2231 29.4754 19.3785C31.8831 19.6115 29.087 20.1552 29.087 20.1552C29.087 20.1552 27.2618 20.6989 26.8346 21.2814C26.8346 21.2814 25.7472 21.8251 24.854 22.9513C24.7763 23.029 24.621 23.262 24.621 23.262C24.5755 23.3075 24.5433 23.353 24.5167 23.3907C24.4978 23.4173 24.4817 23.4401 24.4656 23.4561C24.4268 23.5338 24.388 23.5726 24.388 23.5726C24.1161 23.8833 23.6113 24.7377 23.2229 25.3979C22.9899 25.7862 22.7957 26.5241 22.8346 27.029C23.4171 26.3299 23.8831 26.1746 23.8831 26.1746C26.1355 24.9707 24.3491 27.1843 24.3491 27.1843C24.3491 27.1843 22.8734 28.66 23.4559 32.4659C24.0385 36.2717 26.9511 36.5824 26.9511 36.5824C26.9511 36.5824 26.9511 35.3396 27.2618 33.0872C27.5724 30.8348 27.922 33.5144 27.922 33.5144C28.5433 42.3688 34.4851 41.2426 34.4851 41.2426C34.4851 41.2426 33.9025 38.7571 34.7181 36.66C35.5336 34.5629 35.8831 36.9319 35.8831 36.9319C36.155 42.4464 39.3006 45.5921 42.019 44.6989C41.32 42.7571 41.7084 41.3202 41.7084 41.3202C41.7084 41.3202 42.2132 38.4076 42.5239 41.6697C42.7957 44.2717 45.0093 46.2523 46.1355 47.0678C47.8831 48.3105 50.6016 49.6697 53.786 48.893C53.786 48.893 56.1938 48.427 57.1258 47.6503C58.4462 46.5629 57.6695 48.2717 57.6695 48.2717C57.6695 48.2717 57.0093 49.126 55.7666 49.9027C55.922 50.0193 56.5045 50.3688 58.1744 50.5241H58.4462C65.32 50.4853 66.0579 44.9707 66.0967 42.8348C66.0684 42.5229 66.0555 42.2317 66.0431 41.9499C66.0215 41.4597 66.0012 40.9979 65.9025 40.5047C65.8559 40.2717 65.7674 40.0387 65.6788 39.8057C65.6198 39.6503 65.5608 39.495 65.5142 39.3396C65.4559 39.1843 65.3977 39.0192 65.3394 38.8542C65.2812 38.6891 65.2229 38.5241 65.1647 38.3688C65.0553 38.4918 64.9508 38.6292 64.8443 38.7693C64.6482 39.0271 64.4455 39.2936 64.1938 39.495C64.0523 39.6011 63.9349 39.7234 63.8197 39.8434C63.682 39.9869 63.5474 40.1271 63.3783 40.2328C63.3394 40.2523 63.2909 40.2717 63.2423 40.2911C63.1938 40.3105 63.1452 40.3299 63.1064 40.3493C63.0676 40.3882 62.9899 40.3882 62.9511 40.3882C62.9122 40.4076 62.8928 40.4173 62.8783 40.4125C62.8637 40.4076 62.854 40.3882 62.8346 40.3493C62.7569 40.1552 62.7181 39.8833 62.8734 39.728C63.0676 39.5338 63.1841 39.262 63.2618 38.9901C63.3268 38.7892 63.3936 38.5891 63.4603 38.3894C63.8318 37.277 64.1997 36.1754 64.2326 34.9901C64.2715 33.8639 64.1161 32.7377 63.8054 31.6503C63.4559 30.5629 62.9511 29.5532 62.3686 28.5824C62.2532 28.4093 62.0734 28.2361 61.8772 28.0471C61.8093 27.9817 61.7394 27.9144 61.6695 27.8445C61.6695 28.0387 61.6307 28.194 61.5919 28.3493L61.5919 28.3493C61.4753 28.893 61.2812 29.3979 61.087 29.9027C61.0093 30.1358 60.8928 30.4076 60.7763 30.6406C60.7375 30.7571 60.6987 30.8736 60.5821 30.7959C60.5045 30.7183 60.4268 30.6406 60.388 30.5629C60.3103 30.4464 60.2715 30.2911 60.2715 30.1358C60.3103 29.6697 60.3103 29.2037 60.2715 28.7765C60.2326 28.3882 60.1161 27.9999 59.9996 27.6115L59.9996 27.6115C59.922 27.3008 59.8443 27.029 59.7278 26.7183C59.3394 25.7086 58.7181 24.7765 58.0967 23.8833C57.5919 23.1843 57.0093 22.5629 56.4268 21.9416L56.4268 21.9416C55.9996 21.4755 55.5724 21.0095 55.0676 20.66C54.3297 20.0775 53.5142 19.5338 52.621 19.1843C52.4828 19.1341 52.3457 19.0828 52.2089 19.0317C51.4998 18.7667 50.8004 18.5053 50.019 18.4076C49.9158 18.3928 49.8181 18.3501 49.7196 18.3069C49.5589 18.2366 49.3962 18.1653 49.2035 18.2134C49.1258 18.2523 49.0093 17.9804 49.0093 17.9416C49.0093 17.9183 49.0513 17.895 49.0932 17.8717C49.1212 17.8561 49.1491 17.8406 49.1647 17.8251C49.2035 17.8057 49.2326 17.7959 49.2618 17.7862C49.2909 17.7765 49.32 17.7668 49.3588 17.7474C49.6307 17.6309 49.9414 17.5532 50.2132 17.5144C50.2715 17.5144 50.32 17.5047 50.3686 17.495C50.4171 17.4853 50.4656 17.4756 50.5239 17.4756C51.7666 17.2426 52.9317 17.5144 54.0579 17.9804C54.4721 18.1358 54.8863 18.3256 55.3006 18.5155C55.5077 18.6104 55.7148 18.7053 55.922 18.7959C56.7375 19.1455 57.4753 19.6503 58.0967 20.2328C58.6663 20.7506 59.1668 21.3375 59.6674 21.9243C59.9176 22.2177 60.1679 22.5112 60.4268 22.7959C60.9317 23.3785 61.3588 23.961 61.6695 24.66C61.786 24.9707 61.9802 25.2037 62.252 25.3591C62.4074 25.4756 62.5627 25.5921 62.7569 25.7086C63.4948 26.2134 64.155 26.7959 64.5821 27.5726C64.6967 27.7903 64.8181 28.0046 64.9392 28.2186C65.2286 28.7297 65.5167 29.2387 65.7084 29.7862C65.9611 30.4182 66.0854 31.0758 66.2066 31.7173C66.2343 31.8643 66.2619 32.0104 66.2909 32.1552C66.5239 33.3591 66.4851 34.6018 66.3297 35.8057C66.2909 36.0387 66.3297 36.2328 66.4851 36.427C66.9511 37.0095 67.3006 37.6697 67.4948 38.3688C67.8055 39.4561 68.0385 40.6212 68.2326 41.7474C68.3138 42.2075 68.3573 42.6865 68.4025 43.1843C68.4221 43.4008 68.4421 43.6209 68.4656 43.8445C68.4656 45.6697 68.155 47.0678 67.6501 48.2328C71.7666 47.8833 73.4365 42.1358 73.4365 42.1358C73.4365 42.0631 73.4667 42.0056 73.4989 41.9443Z" fill="#EE4036"/>
<path d="M6.25231 33.3594L38.1358 41.204L42.1746 45.7477L41.2814 57.204L41.1261 75.8836L33.631 78.9516L10.2523 72.1943L8.19406 69.5536V48.0778L2.87367 43.6895L1.98047 40.9322L2.796 36.5827L6.25231 33.3594Z" fill="#EE4036"/>
<path fill-rule="evenodd" clip-rule="evenodd" d="M43.4952 51.0292C43.5728 56.8544 43.4952 67.6894 43.4563 68.0389H43.4952V73.7865C43.5728 75.6894 42.4078 77.437 40.6214 78.136L40.6213 78.136L40.6209 78.1362L40.6206 78.1363C40.0774 78.3691 39.8057 78.4856 39.4952 78.602L36.1942 79.9612C34.602 80.8156 32.1165 80.0777 32.1165 80.0777L12 74.4467L11.7282 74.369C11.3398 74.2525 10.9903 74.136 10.6408 73.9418C9.6311 73.3593 8.77673 72.5049 8.23304 71.4564C7.53401 70.369 7.22333 69.437 7.14566 65.5923V65.2816V63.8059V62.2913L7.10682 50.136C7.10682 50.136 6.99032 48.1554 4.77673 46.6408C2.91265 45.6311 1.51459 43.8836 0.970901 41.8253C-0.116477 37.67 2.33012 33.3981 6.48546 32.2719L6.67964 32.2331C7.45634 32.0001 8.27187 31.8836 9.08741 31.8447L9.82527 32.0001L36.1554 39.4175L37.3592 39.8059C38.6408 40.1554 39.8447 40.8156 40.8156 41.7476C42.2136 42.8739 43.3787 44.4661 43.4563 46.6797V51.0292H43.4952ZM6.75731 44.6214L7.57284 44.8544L12.6991 46.3302L28.3495 50.7573C26.602 47.1457 27.8835 42.7962 31.301 40.6991L15.4175 36.2331L10.1748 34.7573C8.34954 34.369 7.301 34.6408 7.301 34.6408C5.70877 35.068 4.34954 36.1942 3.72818 37.7476C2.60197 40.3884 3.88352 43.4564 6.56313 44.5826L6.75731 44.6214ZM34.369 76.2719C34.369 76.5049 34.2913 76.7768 34.1748 76.9709C33.9418 77.3593 33.4758 77.67 32.5437 77.3981L13.0097 71.9612C10.4466 71.1069 10.0194 68.8156 10.0194 67.4175V67.301V65.2428V64.6991C10.0194 56.1166 18.0583 57.903 18.0583 57.903L18.1748 57.9418L34.4078 62.7573L34.369 76.2719ZM39.2233 75.534C40.0389 75.2234 40.5826 74.4467 40.5826 73.5535V47.534V47.068C40.5437 46.5243 40.466 46.0195 40.2719 45.5146C39.534 43.9224 38.1359 42.7185 36.4272 42.2137C34.2136 41.7865 31.9612 42.7962 30.8738 44.7768C29.4758 47.301 30.369 50.4467 32.8544 51.8447L33.2816 52.0777L33.6699 52.3107C34.7573 53.0098 35.6894 53.9418 36.3884 55.0292C36.9321 55.9224 37.2039 56.9321 37.2427 57.9418V76.3107L39.2233 75.534Z" fill="#0B4653"/>
</svg>
